<?xml version="1.0" encoding="UTF-8" standalone="no"?>
<!DOCTYPE svg PUBLIC "-//W3C//DTD SVG 1.1//EN"
 "http://www.w3.org/Graphics/SVG/1.1/DTD/svg11.dtd">
<!-- Generated by graphviz version 2.47.0 (20210316.0004)
 -->
<!-- Title: dependencies Pages: 1 -->
<svg width="4314pt" height="211pt"
 viewBox="0.00 0.00 4314.00 211.00" xmlns="http://www.w3.org/2000/svg" xmlns:xlink="http://www.w3.org/1999/xlink">
<g id="graph0" class="graph" transform="scale(1 1) rotate(0) translate(4 207)">
<title>dependencies</title>
<polygon fill="white" stroke="transparent" points="-4,4 -4,-207 4310,-207 4310,4 -4,4"/>
<text text-anchor="start" x="2132.01" y="-42.4" font-family="Times-12" font-weight="bold" font-size="14.00">Legend</text>
<polygon fill="#ffffb3" stroke="transparent" points="1919,-10 1919,-30 1939,-30 1939,-10 1919,-10"/>
<text text-anchor="start" x="1942.63" y="-15.4" font-family="Times-12" font-size="14.00"> &#160;Declarations</text>
<polygon fill="#8dd3c7" stroke="transparent" points="2032,-10 2032,-30 2052,-30 2052,-10 2032,-10"/>
<text text-anchor="start" x="2055.73" y="-15.4" font-family="Times-12" font-size="14.00"> &#160;Module</text>
<polygon fill="#80b1d3" stroke="transparent" points="2118,-10 2118,-30 2138,-30 2138,-10 2118,-10"/>
<text text-anchor="start" x="2141.78" y="-15.4" font-family="Times-12" font-size="14.00"> &#160;Bootstrap</text>
<polygon fill="#fdb462" stroke="transparent" points="2215,-10 2215,-30 2235,-30 2235,-10 2215,-10"/>
<text text-anchor="start" x="2238.67" y="-15.4" font-family="Times-12" font-size="14.00"> &#160;Providers</text>
<polygon fill="#fb8072" stroke="transparent" points="2311,-10 2311,-30 2331,-30 2331,-10 2311,-10"/>
<text text-anchor="start" x="2334.73" y="-15.4" font-family="Times-12" font-size="14.00"> &#160;Exports</text>
<g id="clust1" class="cluster">
<title>cluster_InstructorModule</title>
<polygon fill="none" stroke="black" stroke-dasharray="1,5" points="8,-70 8,-195 4298,-195 4298,-70 8,-70"/>
</g>
<g id="clust8" class="cluster">
<title>cluster_InstructorModule_imports</title>
<polygon fill="none" stroke="black" points="979,-78 979,-130 4290,-130 4290,-78 979,-78"/>
</g>
<g id="clust2" class="cluster">
<title>cluster_InstructorModule_declarations</title>
<polygon fill="none" stroke="black" points="16,-78 16,-130 971,-130 971,-78 16,-78"/>
</g>
<!-- AddInstructorComponent -->
<g id="node1" class="node">
<title>AddInstructorComponent</title>
<polygon fill="#ffffb3" stroke="black" points="962.86,-122 803.14,-122 803.14,-86 962.86,-86 962.86,-122"/>
<text text-anchor="middle" x="883" y="-99.8" font-family="Times,serif" font-size="14.00">AddInstructorComponent</text>
</g>
<!-- InstructorModule -->
<g id="node6" class="node">
<title>InstructorModule</title>
<polygon fill="#8dd3c7" stroke="black" points="2217.97,-187 2214.97,-191 2193.97,-191 2190.97,-187 2104.03,-187 2104.03,-151 2217.97,-151 2217.97,-187"/>
<text text-anchor="middle" x="2161" y="-164.8" font-family="Times,serif" font-size="14.00">InstructorModule</text>
</g>
<!-- AddInstructorComponent&#45;&gt;InstructorModule -->
<g id="edge1" class="edge">
<title>AddInstructorComponent&#45;&gt;InstructorModule</title>
<path fill="none" stroke="black" d="M883,-122.04C883,-143.66 883,-177 883,-177 883,-177 2094.02,-177 2094.02,-177"/>
<polygon fill="black" stroke="black" points="2094.02,-180.5 2104.02,-177 2094.02,-173.5 2094.02,-180.5"/>
</g>
<!-- AppInstructorDialogContentComponent -->
<g id="node2" class="node">
<title>AppInstructorDialogContentComponent</title>
<polygon fill="#ffffb3" stroke="black" points="785.3,-122 542.7,-122 542.7,-86 785.3,-86 785.3,-122"/>
<text text-anchor="middle" x="664" y="-99.8" font-family="Times,serif" font-size="14.00">AppInstructorDialogContentComponent</text>
</g>
<!-- AppInstructorDialogContentComponent&#45;&gt;InstructorModule -->
<g id="edge2" class="edge">
<title>AppInstructorDialogContentComponent&#45;&gt;InstructorModule</title>
<path fill="none" stroke="black" d="M664,-122.16C664,-144.35 664,-179 664,-179 664,-179 2093.69,-179 2093.69,-179"/>
<polygon fill="black" stroke="black" points="2093.69,-182.5 2103.69,-179 2093.69,-175.5 2093.69,-182.5"/>
</g>
<!-- DetailInstructorComponent -->
<g id="node3" class="node">
<title>DetailInstructorComponent</title>
<polygon fill="#ffffb3" stroke="black" points="524.96,-122 355.04,-122 355.04,-86 524.96,-86 524.96,-122"/>
<text text-anchor="middle" x="440" y="-99.8" font-family="Times,serif" font-size="14.00">DetailInstructorComponent</text>
</g>
<!-- DetailInstructorComponent&#45;&gt;InstructorModule -->
<g id="edge3" class="edge">
<title>DetailInstructorComponent&#45;&gt;InstructorModule</title>
<path fill="none" stroke="black" d="M440,-122.09C440,-145.13 440,-182 440,-182 440,-182 2093.74,-182 2093.74,-182"/>
<polygon fill="black" stroke="black" points="2093.74,-185.5 2103.74,-182 2093.74,-178.5 2093.74,-185.5"/>
</g>
<!-- EditInstructorComponent -->
<g id="node4" class="node">
<title>EditInstructorComponent</title>
<polygon fill="#ffffb3" stroke="black" points="336.59,-122 177.41,-122 177.41,-86 336.59,-86 336.59,-122"/>
<text text-anchor="middle" x="257" y="-99.8" font-family="Times,serif" font-size="14.00">EditInstructorComponent</text>
</g>
<!-- EditInstructorComponent&#45;&gt;InstructorModule -->
<g id="edge4" class="edge">
<title>EditInstructorComponent&#45;&gt;InstructorModule</title>
<path fill="none" stroke="black" d="M257,-122.32C257,-145.66 257,-183 257,-183 257,-183 2094.02,-183 2094.02,-183"/>
<polygon fill="black" stroke="black" points="2094.02,-186.5 2104.02,-183 2094.02,-179.5 2094.02,-186.5"/>
</g>
<!-- InstructorComponent -->
<g id="node5" class="node">
<title>InstructorComponent</title>
<polygon fill="#ffffb3" stroke="black" points="159.75,-122 24.25,-122 24.25,-86 159.75,-86 159.75,-122"/>
<text text-anchor="middle" x="92" y="-99.8" font-family="Times,serif" font-size="14.00">InstructorComponent</text>
</g>
<!-- InstructorComponent&#45;&gt;InstructorModule -->
<g id="edge5" class="edge">
<title>InstructorComponent&#45;&gt;InstructorModule</title>
<path fill="none" stroke="black" d="M92,-122.38C92,-146.28 92,-185 92,-185 92,-185 2093.78,-185 2093.78,-185"/>
<polygon fill="black" stroke="black" points="2093.78,-188.5 2103.78,-185 2093.78,-181.5 2093.78,-188.5"/>
</g>
<!-- InstructorRoutingModule -->
<g id="node7" class="node">
<title>InstructorRoutingModule</title>
<polygon fill="#8dd3c7" stroke="black" points="4281.59,-122 4278.59,-126 4257.59,-126 4254.59,-122 4122.41,-122 4122.41,-86 4281.59,-86 4281.59,-122"/>
<text text-anchor="middle" x="4202" y="-99.8" font-family="Times,serif" font-size="14.00">InstructorRoutingModule</text>
</g>
<!-- InstructorRoutingModule&#45;&gt;InstructorModule -->
<g id="edge6" class="edge">
<title>InstructorRoutingModule&#45;&gt;InstructorModule</title>
<path fill="none" stroke="black" d="M4202,-122.38C4202,-146.28 4202,-185 4202,-185 4202,-185 2227.99,-185 2227.99,-185"/>
<polygon fill="black" stroke="black" points="2227.99,-181.5 2217.99,-185 2227.99,-188.5 2227.99,-181.5"/>
</g>
<!-- MatButton -->
<g id="node8" class="node">
<title>MatButton</title>
<polygon fill="#8dd3c7" stroke="black" points="4104.17,-122 4101.17,-126 4080.17,-126 4077.17,-122 4027.83,-122 4027.83,-86 4104.17,-86 4104.17,-122"/>
<text text-anchor="middle" x="4066" y="-99.8" font-family="Times,serif" font-size="14.00">MatButton</text>
</g>
<!-- MatButton&#45;&gt;InstructorModule -->
<g id="edge7" class="edge">
<title>MatButton&#45;&gt;InstructorModule</title>
<path fill="none" stroke="black" d="M4066,-122.32C4066,-145.66 4066,-183 4066,-183 4066,-183 2228.01,-183 2228.01,-183"/>
<polygon fill="black" stroke="black" points="2228.01,-179.5 2218.01,-183 2228.01,-186.5 2228.01,-179.5"/>
</g>
<!-- MatCard -->
<g id="node9" class="node">
<title>MatCard</title>
<polygon fill="#8dd3c7" stroke="black" points="4009.76,-122 4006.76,-126 3985.76,-126 3982.76,-122 3944.24,-122 3944.24,-86 4009.76,-86 4009.76,-122"/>
<text text-anchor="middle" x="3977" y="-99.8" font-family="Times,serif" font-size="14.00">MatCard</text>
</g>
<!-- MatCard&#45;&gt;InstructorModule -->
<g id="edge8" class="edge">
<title>MatCard&#45;&gt;InstructorModule</title>
<path fill="none" stroke="black" d="M3977,-122.09C3977,-145.13 3977,-182 3977,-182 3977,-182 2228.1,-182 2228.1,-182"/>
<polygon fill="black" stroke="black" points="2228.1,-178.5 2218.1,-182 2228.1,-185.5 2228.1,-178.5"/>
</g>
<!-- MatCardContent -->
<g id="node10" class="node">
<title>MatCardContent</title>
<polygon fill="#8dd3c7" stroke="black" points="3926.09,-122 3923.09,-126 3902.09,-126 3899.09,-122 3815.91,-122 3815.91,-86 3926.09,-86 3926.09,-122"/>
<text text-anchor="middle" x="3871" y="-99.8" font-family="Times,serif" font-size="14.00">MatCardContent</text>
</g>
<!-- MatCardContent&#45;&gt;InstructorModule -->
<g id="edge9" class="edge">
<title>MatCardContent&#45;&gt;InstructorModule</title>
<path fill="none" stroke="black" d="M3871,-122.16C3871,-144.35 3871,-179 3871,-179 3871,-179 2228.38,-179 2228.38,-179"/>
<polygon fill="black" stroke="black" points="2228.38,-175.5 2218.38,-179 2228.38,-182.5 2228.38,-175.5"/>
</g>
<!-- MatCell -->
<g id="node11" class="node">
<title>MatCell</title>
<polygon fill="#8dd3c7" stroke="black" points="3797.88,-122 3794.88,-126 3773.88,-126 3770.88,-122 3736.12,-122 3736.12,-86 3797.88,-86 3797.88,-122"/>
<text text-anchor="middle" x="3767" y="-99.8" font-family="Times,serif" font-size="14.00">MatCell</text>
</g>
<!-- MatCell&#45;&gt;InstructorModule -->
<g id="edge10" class="edge">
<title>MatCell&#45;&gt;InstructorModule</title>
<path fill="none" stroke="black" d="M3767,-122.04C3767,-143.66 3767,-177 3767,-177 3767,-177 2228.16,-177 2228.16,-177"/>
<polygon fill="black" stroke="black" points="2228.16,-173.5 2218.16,-177 2228.16,-180.5 2228.16,-173.5"/>
</g>
<!-- MatCellDef -->
<g id="node12" class="node">
<title>MatCellDef</title>
<polygon fill="#8dd3c7" stroke="black" points="3718.36,-122 3715.36,-126 3694.36,-126 3691.36,-122 3635.64,-122 3635.64,-86 3718.36,-86 3718.36,-122"/>
<text text-anchor="middle" x="3677" y="-99.8" font-family="Times,serif" font-size="14.00">MatCellDef</text>
</g>
<!-- MatCellDef&#45;&gt;InstructorModule -->
<g id="edge11" class="edge">
<title>MatCellDef&#45;&gt;InstructorModule</title>
<path fill="none" stroke="black" d="M3677,-122.28C3677,-143.32 3677,-175 3677,-175 3677,-175 2228.12,-175 2228.12,-175"/>
<polygon fill="black" stroke="black" points="2228.12,-171.5 2218.12,-175 2228.12,-178.5 2228.12,-171.5"/>
</g>
<!-- MatColumnDef -->
<g id="node13" class="node">
<title>MatColumnDef</title>
<polygon fill="#8dd3c7" stroke="black" points="3617.15,-122 3614.15,-126 3593.15,-126 3590.15,-122 3512.85,-122 3512.85,-86 3617.15,-86 3617.15,-122"/>
<text text-anchor="middle" x="3565" y="-99.8" font-family="Times,serif" font-size="14.00">MatColumnDef</text>
</g>
<!-- MatColumnDef&#45;&gt;InstructorModule -->
<g id="edge12" class="edge">
<title>MatColumnDef&#45;&gt;InstructorModule</title>
<path fill="none" stroke="black" d="M3565,-122.13C3565,-142.57 3565,-173 3565,-173 3565,-173 2228.22,-173 2228.22,-173"/>
<polygon fill="black" stroke="black" points="2228.22,-169.5 2218.22,-173 2228.22,-176.5 2228.22,-169.5"/>
</g>
<!-- MatDatepicker -->
<g id="node14" class="node">
<title>MatDatepicker</title>
<polygon fill="#8dd3c7" stroke="black" points="3494.96,-122 3491.96,-126 3470.96,-126 3467.96,-122 3395.04,-122 3395.04,-86 3494.96,-86 3494.96,-122"/>
<text text-anchor="middle" x="3445" y="-99.8" font-family="Times,serif" font-size="14.00">MatDatepicker</text>
</g>
<!-- MatDatepicker&#45;&gt;InstructorModule -->
<g id="edge13" class="edge">
<title>MatDatepicker&#45;&gt;InstructorModule</title>
<path fill="none" stroke="black" d="M3445,-122.31C3445,-142.15 3445,-171 3445,-171 3445,-171 2228.25,-171 2228.25,-171"/>
<polygon fill="black" stroke="black" points="2228.25,-167.5 2218.25,-171 2228.25,-174.5 2228.25,-167.5"/>
</g>
<!-- MatDatepickerInput -->
<g id="node15" class="node">
<title>MatDatepickerInput</title>
<polygon fill="#8dd3c7" stroke="black" points="3376.51,-122 3373.51,-126 3352.51,-126 3349.51,-122 3247.49,-122 3247.49,-86 3376.51,-86 3376.51,-122"/>
<text text-anchor="middle" x="3312" y="-99.8" font-family="Times,serif" font-size="14.00">MatDatepickerInput</text>
</g>
<!-- MatDatepickerInput&#45;&gt;InstructorModule -->
<g id="edge14" class="edge">
<title>MatDatepickerInput&#45;&gt;InstructorModule</title>
<path fill="none" stroke="black" d="M3312,-122.11C3312,-141.34 3312,-169 3312,-169 3312,-169 2228.08,-169 2228.08,-169"/>
<polygon fill="black" stroke="black" points="2228.08,-165.5 2218.08,-169 2228.08,-172.5 2228.08,-165.5"/>
</g>
<!-- MatDatepickerToggle -->
<g id="node16" class="node">
<title>MatDatepickerToggle</title>
<polygon fill="#8dd3c7" stroke="black" points="3228.61,-122 3225.61,-126 3204.61,-126 3201.61,-122 3089.39,-122 3089.39,-86 3228.61,-86 3228.61,-122"/>
<text text-anchor="middle" x="3159" y="-99.8" font-family="Times,serif" font-size="14.00">MatDatepickerToggle</text>
</g>
<!-- MatDatepickerToggle&#45;&gt;InstructorModule -->
<g id="edge15" class="edge">
<title>MatDatepickerToggle&#45;&gt;InstructorModule</title>
<path fill="none" stroke="black" d="M3159,-122.22C3159,-140.83 3159,-167 3159,-167 3159,-167 2228.24,-167 2228.24,-167"/>
<polygon fill="black" stroke="black" points="2228.24,-163.5 2218.24,-167 2228.24,-170.5 2228.24,-163.5"/>
</g>
<!-- MatDialogActions -->
<g id="node17" class="node">
<title>MatDialogActions</title>
<polygon fill="#8dd3c7" stroke="black" points="3071.2,-122 3068.2,-126 3047.2,-126 3044.2,-122 2950.8,-122 2950.8,-86 3071.2,-86 3071.2,-122"/>
<text text-anchor="middle" x="3011" y="-99.8" font-family="Times,serif" font-size="14.00">MatDialogActions</text>
</g>
<!-- MatDialogActions&#45;&gt;InstructorModule -->
<g id="edge16" class="edge">
<title>MatDialogActions&#45;&gt;InstructorModule</title>
<path fill="none" stroke="black" d="M3011,-122.3C3011,-140.27 3011,-165 3011,-165 3011,-165 2228.09,-165 2228.09,-165"/>
<polygon fill="black" stroke="black" points="2228.09,-161.5 2218.09,-165 2228.09,-168.5 2228.09,-161.5"/>
</g>
<!-- MatDialogTitle -->
<g id="node18" class="node">
<title>MatDialogTitle</title>
<polygon fill="#8dd3c7" stroke="black" points="2932.59,-122 2929.59,-126 2908.59,-126 2905.59,-122 2829.41,-122 2829.41,-86 2932.59,-86 2932.59,-122"/>
<text text-anchor="middle" x="2881" y="-99.8" font-family="Times,serif" font-size="14.00">MatDialogTitle</text>
</g>
<!-- MatDialogTitle&#45;&gt;InstructorModule -->
<g id="edge17" class="edge">
<title>MatDialogTitle&#45;&gt;InstructorModule</title>
<path fill="none" stroke="black" d="M2881,-122.02C2881,-139.37 2881,-163 2881,-163 2881,-163 2228.1,-163 2228.1,-163"/>
<polygon fill="black" stroke="black" points="2228.1,-159.5 2218.1,-163 2228.1,-166.5 2228.1,-159.5"/>
</g>
<!-- MatError -->
<g id="node19" class="node">
<title>MatError</title>
<polygon fill="#8dd3c7" stroke="black" points="2811.08,-122 2808.08,-126 2787.08,-126 2784.08,-122 2742.92,-122 2742.92,-86 2811.08,-86 2811.08,-122"/>
<text text-anchor="middle" x="2777" y="-99.8" font-family="Times,serif" font-size="14.00">MatError</text>
</g>
<!-- MatError&#45;&gt;InstructorModule -->
<g id="edge18" class="edge">
<title>MatError&#45;&gt;InstructorModule</title>
<path fill="none" stroke="black" d="M2777,-122.04C2777,-138.73 2777,-161 2777,-161 2777,-161 2228.12,-161 2228.12,-161"/>
<polygon fill="black" stroke="black" points="2228.12,-157.5 2218.12,-161 2228.12,-164.5 2228.12,-157.5"/>
</g>
<!-- MatFormField -->
<g id="node20" class="node">
<title>MatFormField</title>
<polygon fill="#8dd3c7" stroke="black" points="2724.66,-122 2721.66,-126 2700.66,-126 2697.66,-122 2627.34,-122 2627.34,-86 2724.66,-86 2724.66,-122"/>
<text text-anchor="middle" x="2676" y="-99.8" font-family="Times,serif" font-size="14.00">MatFormField</text>
</g>
<!-- MatFormField&#45;&gt;InstructorModule -->
<g id="edge19" class="edge">
<title>MatFormField&#45;&gt;InstructorModule</title>
<path fill="none" stroke="black" d="M2676,-122.01C2676,-138.05 2676,-159 2676,-159 2676,-159 2228.08,-159 2228.08,-159"/>
<polygon fill="black" stroke="black" points="2228.08,-155.5 2218.08,-159 2228.08,-162.5 2228.08,-155.5"/>
</g>
<!-- MatHeaderCell -->
<g id="node21" class="node">
<title>MatHeaderCell</title>
<polygon fill="#8dd3c7" stroke="black" points="2609.29,-122 2606.29,-126 2585.29,-126 2582.29,-122 2506.71,-122 2506.71,-86 2609.29,-86 2609.29,-122"/>
<text text-anchor="middle" x="2558" y="-99.8" font-family="Times,serif" font-size="14.00">MatHeaderCell</text>
</g>
<!-- MatHeaderCell&#45;&gt;InstructorModule -->
<g id="edge20" class="edge">
<title>MatHeaderCell&#45;&gt;InstructorModule</title>
<path fill="none" stroke="black" d="M2558,-122.24C2558,-137.57 2558,-157 2558,-157 2558,-157 2228.3,-157 2228.3,-157"/>
<polygon fill="black" stroke="black" points="2228.3,-153.5 2218.3,-157 2228.3,-160.5 2228.3,-153.5"/>
</g>
<!-- MatHeaderCellDef -->
<g id="node22" class="node">
<title>MatHeaderCellDef</title>
<polygon fill="#8dd3c7" stroke="black" points="2488.78,-122 2485.78,-126 2464.78,-126 2461.78,-122 2365.22,-122 2365.22,-86 2488.78,-86 2488.78,-122"/>
<text text-anchor="middle" x="2427" y="-99.8" font-family="Times,serif" font-size="14.00">MatHeaderCellDef</text>
</g>
<!-- MatHeaderCellDef&#45;&gt;InstructorModule -->
<g id="edge21" class="edge">
<title>MatHeaderCellDef&#45;&gt;InstructorModule</title>
<path fill="none" stroke="black" d="M2427,-122.12C2427,-136.78 2427,-155 2427,-155 2427,-155 2228.06,-155 2228.06,-155"/>
<polygon fill="black" stroke="black" points="2228.06,-151.5 2218.06,-155 2228.06,-158.5 2228.06,-151.5"/>
</g>
<!-- MatHeaderRow -->
<g id="node23" class="node">
<title>MatHeaderRow</title>
<polygon fill="#8dd3c7" stroke="black" points="2347.9,-122 2344.9,-126 2323.9,-126 2320.9,-122 2242.1,-122 2242.1,-86 2347.9,-86 2347.9,-122"/>
<text text-anchor="middle" x="2295" y="-99.8" font-family="Times,serif" font-size="14.00">MatHeaderRow</text>
</g>
<!-- MatHeaderRow&#45;&gt;InstructorModule -->
<g id="edge22" class="edge">
<title>MatHeaderRow&#45;&gt;InstructorModule</title>
<path fill="none" stroke="black" d="M2295,-122.25C2295,-136.18 2295,-153 2295,-153 2295,-153 2228.22,-153 2228.22,-153"/>
<polygon fill="black" stroke="black" points="2228.22,-149.5 2218.22,-153 2228.22,-156.5 2228.22,-149.5"/>
</g>
<!-- MatHeaderRowDef -->
<g id="node24" class="node">
<title>MatHeaderRowDef</title>
<polygon fill="#8dd3c7" stroke="black" points="2224.39,-122 2221.39,-126 2200.39,-126 2197.39,-122 2097.61,-122 2097.61,-86 2224.39,-86 2224.39,-122"/>
<text text-anchor="middle" x="2161" y="-99.8" font-family="Times,serif" font-size="14.00">MatHeaderRowDef</text>
</g>
<!-- MatHeaderRowDef&#45;&gt;InstructorModule -->
<g id="edge23" class="edge">
<title>MatHeaderRowDef&#45;&gt;InstructorModule</title>
<path fill="none" stroke="black" d="M2161,-122.11C2161,-122.11 2161,-140.99 2161,-140.99"/>
<polygon fill="black" stroke="black" points="2157.5,-140.99 2161,-150.99 2164.5,-140.99 2157.5,-140.99"/>
</g>
<!-- MatIcon -->
<g id="node25" class="node">
<title>MatIcon</title>
<polygon fill="#8dd3c7" stroke="black" points="2079.93,-122 2076.93,-126 2055.93,-126 2052.93,-122 2016.07,-122 2016.07,-86 2079.93,-86 2079.93,-122"/>
<text text-anchor="middle" x="2048" y="-99.8" font-family="Times,serif" font-size="14.00">MatIcon</text>
</g>
<!-- MatIcon&#45;&gt;InstructorModule -->
<g id="edge24" class="edge">
<title>MatIcon&#45;&gt;InstructorModule</title>
<path fill="none" stroke="black" d="M2048,-122.25C2048,-136.18 2048,-153 2048,-153 2048,-153 2093.84,-153 2093.84,-153"/>
<polygon fill="black" stroke="black" points="2093.84,-156.5 2103.84,-153 2093.84,-149.5 2093.84,-156.5"/>
</g>
<!-- MatInput -->
<g id="node26" class="node">
<title>MatInput</title>
<polygon fill="#8dd3c7" stroke="black" points="1998.1,-122 1995.1,-126 1974.1,-126 1971.1,-122 1929.9,-122 1929.9,-86 1998.1,-86 1998.1,-122"/>
<text text-anchor="middle" x="1964" y="-99.8" font-family="Times,serif" font-size="14.00">MatInput</text>
</g>
<!-- MatInput&#45;&gt;InstructorModule -->
<g id="edge25" class="edge">
<title>MatInput&#45;&gt;InstructorModule</title>
<path fill="none" stroke="black" d="M1964,-122.12C1964,-136.78 1964,-155 1964,-155 1964,-155 2094.02,-155 2094.02,-155"/>
<polygon fill="black" stroke="black" points="2094.02,-158.5 2104.02,-155 2094.02,-151.5 2094.02,-158.5"/>
</g>
<!-- MatLabel -->
<g id="node27" class="node">
<title>MatLabel</title>
<polygon fill="#8dd3c7" stroke="black" points="1912.42,-122 1909.42,-126 1888.42,-126 1885.42,-122 1841.58,-122 1841.58,-86 1912.42,-86 1912.42,-122"/>
<text text-anchor="middle" x="1877" y="-99.8" font-family="Times,serif" font-size="14.00">MatLabel</text>
</g>
<!-- MatLabel&#45;&gt;InstructorModule -->
<g id="edge26" class="edge">
<title>MatLabel&#45;&gt;InstructorModule</title>
<path fill="none" stroke="black" d="M1877,-122.24C1877,-137.57 1877,-157 1877,-157 1877,-157 2093.87,-157 2093.87,-157"/>
<polygon fill="black" stroke="black" points="2093.87,-160.5 2103.87,-157 2093.87,-153.5 2093.87,-160.5"/>
</g>
<!-- MatOption -->
<g id="node28" class="node">
<title>MatOption</title>
<polygon fill="#8dd3c7" stroke="black" points="1823.94,-122 1820.94,-126 1799.94,-126 1796.94,-122 1746.06,-122 1746.06,-86 1823.94,-86 1823.94,-122"/>
<text text-anchor="middle" x="1785" y="-99.8" font-family="Times,serif" font-size="14.00">MatOption</text>
</g>
<!-- MatOption&#45;&gt;InstructorModule -->
<g id="edge27" class="edge">
<title>MatOption&#45;&gt;InstructorModule</title>
<path fill="none" stroke="black" d="M1785,-122.01C1785,-138.05 1785,-159 1785,-159 1785,-159 2093.89,-159 2093.89,-159"/>
<polygon fill="black" stroke="black" points="2093.89,-162.5 2103.89,-159 2093.89,-155.5 2093.89,-162.5"/>
</g>
<!-- MatPaginator -->
<g id="node29" class="node">
<title>MatPaginator</title>
<polygon fill="#8dd3c7" stroke="black" points="1728.2,-122 1725.2,-126 1704.2,-126 1701.2,-122 1635.8,-122 1635.8,-86 1728.2,-86 1728.2,-122"/>
<text text-anchor="middle" x="1682" y="-99.8" font-family="Times,serif" font-size="14.00">MatPaginator</text>
</g>
<!-- MatPaginator&#45;&gt;InstructorModule -->
<g id="edge28" class="edge">
<title>MatPaginator&#45;&gt;InstructorModule</title>
<path fill="none" stroke="black" d="M1682,-122.04C1682,-138.73 1682,-161 1682,-161 1682,-161 2093.7,-161 2093.7,-161"/>
<polygon fill="black" stroke="black" points="2093.7,-164.5 2103.7,-161 2093.7,-157.5 2093.7,-164.5"/>
</g>
<!-- MatRow -->
<g id="node30" class="node">
<title>MatRow</title>
<polygon fill="#8dd3c7" stroke="black" points="1617.49,-122 1614.49,-126 1593.49,-126 1590.49,-122 1552.51,-122 1552.51,-86 1617.49,-86 1617.49,-122"/>
<text text-anchor="middle" x="1585" y="-99.8" font-family="Times,serif" font-size="14.00">MatRow</text>
</g>
<!-- MatRow&#45;&gt;InstructorModule -->
<g id="edge29" class="edge">
<title>MatRow&#45;&gt;InstructorModule</title>
<path fill="none" stroke="black" d="M1585,-122.02C1585,-139.37 1585,-163 1585,-163 1585,-163 2093.93,-163 2093.93,-163"/>
<polygon fill="black" stroke="black" points="2093.93,-166.5 2103.93,-163 2093.93,-159.5 2093.93,-166.5"/>
</g>
<!-- MatRowDef -->
<g id="node31" class="node">
<title>MatRowDef</title>
<polygon fill="#8dd3c7" stroke="black" points="1534.97,-122 1531.97,-126 1510.97,-126 1507.97,-122 1449.03,-122 1449.03,-86 1534.97,-86 1534.97,-122"/>
<text text-anchor="middle" x="1492" y="-99.8" font-family="Times,serif" font-size="14.00">MatRowDef</text>
</g>
<!-- MatRowDef&#45;&gt;InstructorModule -->
<g id="edge30" class="edge">
<title>MatRowDef&#45;&gt;InstructorModule</title>
<path fill="none" stroke="black" d="M1492,-122.3C1492,-140.27 1492,-165 1492,-165 1492,-165 2093.96,-165 2093.96,-165"/>
<polygon fill="black" stroke="black" points="2093.96,-168.5 2103.96,-165 2093.96,-161.5 2093.96,-168.5"/>
</g>
<!-- MatSelect -->
<g id="node32" class="node">
<title>MatSelect</title>
<polygon fill="#8dd3c7" stroke="black" points="1431.26,-122 1428.26,-126 1407.26,-126 1404.26,-122 1358.74,-122 1358.74,-86 1431.26,-86 1431.26,-122"/>
<text text-anchor="middle" x="1395" y="-99.8" font-family="Times,serif" font-size="14.00">MatSelect</text>
</g>
<!-- MatSelect&#45;&gt;InstructorModule -->
<g id="edge31" class="edge">
<title>MatSelect&#45;&gt;InstructorModule</title>
<path fill="none" stroke="black" d="M1395,-122.22C1395,-140.83 1395,-167 1395,-167 1395,-167 2093.74,-167 2093.74,-167"/>
<polygon fill="black" stroke="black" points="2093.74,-170.5 2103.74,-167 2093.74,-163.5 2093.74,-170.5"/>
</g>
<!-- MatSuffix -->
<g id="node33" class="node">
<title>MatSuffix</title>
<polygon fill="#8dd3c7" stroke="black" points="1340.55,-122 1337.55,-126 1316.55,-126 1313.55,-122 1267.45,-122 1267.45,-86 1340.55,-86 1340.55,-122"/>
<text text-anchor="middle" x="1304" y="-99.8" font-family="Times,serif" font-size="14.00">MatSuffix</text>
</g>
<!-- MatSuffix&#45;&gt;InstructorModule -->
<g id="edge32" class="edge">
<title>MatSuffix&#45;&gt;InstructorModule</title>
<path fill="none" stroke="black" d="M1304,-122.11C1304,-141.34 1304,-169 1304,-169 1304,-169 2093.77,-169 2093.77,-169"/>
<polygon fill="black" stroke="black" points="2093.77,-172.5 2103.77,-169 2093.77,-165.5 2093.77,-172.5"/>
</g>
<!-- MatTab -->
<g id="node34" class="node">
<title>MatTab</title>
<polygon fill="#8dd3c7" stroke="black" points="1249.32,-122 1246.32,-126 1225.32,-126 1222.32,-122 1188.68,-122 1188.68,-86 1249.32,-86 1249.32,-122"/>
<text text-anchor="middle" x="1219" y="-99.8" font-family="Times,serif" font-size="14.00">MatTab</text>
</g>
<!-- MatTab&#45;&gt;InstructorModule -->
<g id="edge33" class="edge">
<title>MatTab&#45;&gt;InstructorModule</title>
<path fill="none" stroke="black" d="M1219,-122.31C1219,-142.15 1219,-171 1219,-171 1219,-171 2093.84,-171 2093.84,-171"/>
<polygon fill="black" stroke="black" points="2093.84,-174.5 2103.84,-171 2093.84,-167.5 2093.84,-174.5"/>
</g>
<!-- MatTabGroup -->
<g id="node35" class="node">
<title>MatTabGroup</title>
<polygon fill="#8dd3c7" stroke="black" points="1171.08,-122 1168.08,-126 1147.08,-126 1144.08,-122 1074.92,-122 1074.92,-86 1171.08,-86 1171.08,-122"/>
<text text-anchor="middle" x="1123" y="-99.8" font-family="Times,serif" font-size="14.00">MatTabGroup</text>
</g>
<!-- MatTabGroup&#45;&gt;InstructorModule -->
<g id="edge34" class="edge">
<title>MatTabGroup&#45;&gt;InstructorModule</title>
<path fill="none" stroke="black" d="M1123,-122.13C1123,-142.57 1123,-173 1123,-173 1123,-173 2093.71,-173 2093.71,-173"/>
<polygon fill="black" stroke="black" points="2093.71,-176.5 2103.71,-173 2093.71,-169.5 2093.71,-176.5"/>
</g>
<!-- MatTable -->
<g id="node36" class="node">
<title>MatTable</title>
<polygon fill="#8dd3c7" stroke="black" points="1057.42,-122 1054.42,-126 1033.42,-126 1030.42,-122 986.58,-122 986.58,-86 1057.42,-86 1057.42,-122"/>
<text text-anchor="middle" x="1022" y="-99.8" font-family="Times,serif" font-size="14.00">MatTable</text>
</g>
<!-- MatTable&#45;&gt;InstructorModule -->
<g id="edge35" class="edge">
<title>MatTable&#45;&gt;InstructorModule</title>
<path fill="none" stroke="black" d="M1022,-122.28C1022,-143.32 1022,-175 1022,-175 1022,-175 2093.74,-175 2093.74,-175"/>
<polygon fill="black" stroke="black" points="2093.74,-178.5 2103.74,-175 2093.74,-171.5 2093.74,-178.5"/>
</g>
</g>
</svg>
