<?xml version="1.0" encoding="UTF-8" standalone="no"?>
<!DOCTYPE svg PUBLIC "-//W3C//DTD SVG 1.1//EN"
 "http://www.w3.org/Graphics/SVG/1.1/DTD/svg11.dtd">
<!-- Generated by graphviz version 2.47.0 (20210316.0004)
 -->
<!-- Title: dependencies Pages: 1 -->
<svg width="4643pt" height="211pt"
 viewBox="0.00 0.00 4643.00 211.00" xmlns="http://www.w3.org/2000/svg" xmlns:xlink="http://www.w3.org/1999/xlink">
<g id="graph0" class="graph" transform="scale(1 1) rotate(0) translate(4 207)">
<title>dependencies</title>
<polygon fill="white" stroke="transparent" points="-4,4 -4,-207 4639,-207 4639,4 -4,4"/>
<text text-anchor="start" x="2296.51" y="-42.4" font-family="Times-12" font-weight="bold" font-size="14.00">Legend</text>
<polygon fill="#ffffb3" stroke="transparent" points="2083.5,-10 2083.5,-30 2103.5,-30 2103.5,-10 2083.5,-10"/>
<text text-anchor="start" x="2107.13" y="-15.4" font-family="Times-12" font-size="14.00"> &#160;Declarations</text>
<polygon fill="#8dd3c7" stroke="transparent" points="2196.5,-10 2196.5,-30 2216.5,-30 2216.5,-10 2196.5,-10"/>
<text text-anchor="start" x="2220.23" y="-15.4" font-family="Times-12" font-size="14.00"> &#160;Module</text>
<polygon fill="#80b1d3" stroke="transparent" points="2282.5,-10 2282.5,-30 2302.5,-30 2302.5,-10 2282.5,-10"/>
<text text-anchor="start" x="2306.28" y="-15.4" font-family="Times-12" font-size="14.00"> &#160;Bootstrap</text>
<polygon fill="#fdb462" stroke="transparent" points="2379.5,-10 2379.5,-30 2399.5,-30 2399.5,-10 2379.5,-10"/>
<text text-anchor="start" x="2403.17" y="-15.4" font-family="Times-12" font-size="14.00"> &#160;Providers</text>
<polygon fill="#fb8072" stroke="transparent" points="2475.5,-10 2475.5,-30 2495.5,-30 2495.5,-10 2475.5,-10"/>
<text text-anchor="start" x="2499.23" y="-15.4" font-family="Times-12" font-size="14.00"> &#160;Exports</text>
<g id="clust1" class="cluster">
<title>cluster_ClientModule</title>
<polygon fill="none" stroke="black" stroke-dasharray="1,5" points="8,-70 8,-195 4627,-195 4627,-70 8,-70"/>
</g>
<g id="clust2" class="cluster">
<title>cluster_ClientModule_declarations</title>
<polygon fill="none" stroke="black" points="3610,-78 3610,-130 4619,-130 4619,-78 3610,-78"/>
</g>
<g id="clust9" class="cluster">
<title>cluster_ClientModule_imports</title>
<polygon fill="none" stroke="black" points="16,-78 16,-130 3602,-130 3602,-78 16,-78"/>
</g>
<!-- AddClientComponent -->
<g id="node1" class="node">
<title>AddClientComponent</title>
<polygon fill="#ffffb3" stroke="black" points="4610.66,-122 4471.34,-122 4471.34,-86 4610.66,-86 4610.66,-122"/>
<text text-anchor="middle" x="4541" y="-99.8" font-family="Times,serif" font-size="14.00">AddClientComponent</text>
</g>
<!-- ClientModule -->
<g id="node7" class="node">
<title>ClientModule</title>
<polygon fill="#8dd3c7" stroke="black" points="2062.77,-187 2059.77,-191 2038.77,-191 2035.77,-187 1969.23,-187 1969.23,-151 2062.77,-151 2062.77,-187"/>
<text text-anchor="middle" x="2016" y="-164.8" font-family="Times,serif" font-size="14.00">ClientModule</text>
</g>
<!-- AddClientComponent&#45;&gt;ClientModule -->
<g id="edge1" class="edge">
<title>AddClientComponent&#45;&gt;ClientModule</title>
<path fill="none" stroke="black" d="M4541,-122.2C4541,-146.36 4541,-186 4541,-186 4541,-186 2072.8,-186 2072.8,-186"/>
<polygon fill="black" stroke="black" points="2072.8,-182.5 2062.8,-186 2072.8,-189.5 2072.8,-182.5"/>
</g>
<!-- AppClientDialogContentComponent -->
<g id="node2" class="node">
<title>AppClientDialogContentComponent</title>
<polygon fill="#ffffb3" stroke="black" points="4453.1,-122 4230.9,-122 4230.9,-86 4453.1,-86 4453.1,-122"/>
<text text-anchor="middle" x="4342" y="-99.8" font-family="Times,serif" font-size="14.00">AppClientDialogContentComponent</text>
</g>
<!-- AppClientDialogContentComponent&#45;&gt;ClientModule -->
<g id="edge2" class="edge">
<title>AppClientDialogContentComponent&#45;&gt;ClientModule</title>
<path fill="none" stroke="black" d="M4342,-122.15C4342,-145.76 4342,-184 4342,-184 4342,-184 2072.99,-184 2072.99,-184"/>
<polygon fill="black" stroke="black" points="2072.99,-180.5 2062.99,-184 2072.99,-187.5 2072.99,-180.5"/>
</g>
<!-- ClientComponent -->
<g id="node3" class="node">
<title>ClientComponent</title>
<polygon fill="#ffffb3" stroke="black" points="4212.56,-122 4097.44,-122 4097.44,-86 4212.56,-86 4212.56,-122"/>
<text text-anchor="middle" x="4155" y="-99.8" font-family="Times,serif" font-size="14.00">ClientComponent</text>
</g>
<!-- ClientComponent&#45;&gt;ClientModule -->
<g id="edge3" class="edge">
<title>ClientComponent&#45;&gt;ClientModule</title>
<path fill="none" stroke="black" d="M4155,-122.09C4155,-145.13 4155,-182 4155,-182 4155,-182 2072.92,-182 2072.92,-182"/>
<polygon fill="black" stroke="black" points="2072.92,-178.5 2062.92,-182 2072.92,-185.5 2072.92,-178.5"/>
</g>
<!-- DetailClientComponent -->
<g id="node4" class="node">
<title>DetailClientComponent</title>
<polygon fill="#ffffb3" stroke="black" points="4078.76,-122 3929.24,-122 3929.24,-86 4078.76,-86 4078.76,-122"/>
<text text-anchor="middle" x="4004" y="-99.8" font-family="Times,serif" font-size="14.00">DetailClientComponent</text>
</g>
<!-- DetailClientComponent&#45;&gt;ClientModule -->
<g id="edge4" class="edge">
<title>DetailClientComponent&#45;&gt;ClientModule</title>
<path fill="none" stroke="black" d="M4004,-122.01C4004,-144.49 4004,-180 4004,-180 4004,-180 2073.18,-180 2073.18,-180"/>
<polygon fill="black" stroke="black" points="2073.18,-176.5 2063.18,-180 2073.18,-183.5 2073.18,-176.5"/>
</g>
<!-- EditClientComponent -->
<g id="node5" class="node">
<title>EditClientComponent</title>
<polygon fill="#ffffb3" stroke="black" points="3911.39,-122 3772.61,-122 3772.61,-86 3911.39,-86 3911.39,-122"/>
<text text-anchor="middle" x="3842" y="-99.8" font-family="Times,serif" font-size="14.00">EditClientComponent</text>
</g>
<!-- EditClientComponent&#45;&gt;ClientModule -->
<g id="edge5" class="edge">
<title>EditClientComponent&#45;&gt;ClientModule</title>
<path fill="none" stroke="black" d="M3842,-122.29C3842,-144.21 3842,-178 3842,-178 3842,-178 2072.97,-178 2072.97,-178"/>
<polygon fill="black" stroke="black" points="2072.97,-174.5 2062.97,-178 2072.97,-181.5 2072.97,-174.5"/>
</g>
<!-- OkDialogComponent -->
<g id="node6" class="node">
<title>OkDialogComponent</title>
<polygon fill="#ffffb3" stroke="black" points="3754.04,-122 3617.96,-122 3617.96,-86 3754.04,-86 3754.04,-122"/>
<text text-anchor="middle" x="3686" y="-99.8" font-family="Times,serif" font-size="14.00">OkDialogComponent</text>
</g>
<!-- OkDialogComponent&#45;&gt;ClientModule -->
<g id="edge6" class="edge">
<title>OkDialogComponent&#45;&gt;ClientModule</title>
<path fill="none" stroke="black" d="M3686,-122.17C3686,-143.5 3686,-176 3686,-176 3686,-176 2072.85,-176 2072.85,-176"/>
<polygon fill="black" stroke="black" points="2072.85,-172.5 2062.85,-176 2072.85,-179.5 2072.85,-172.5"/>
</g>
<!-- ClientRoutingModule -->
<g id="node8" class="node">
<title>ClientRoutingModule</title>
<polygon fill="#8dd3c7" stroke="black" points="3594.39,-122 3591.39,-126 3570.39,-126 3567.39,-122 3455.61,-122 3455.61,-86 3594.39,-86 3594.39,-122"/>
<text text-anchor="middle" x="3525" y="-99.8" font-family="Times,serif" font-size="14.00">ClientRoutingModule</text>
</g>
<!-- ClientRoutingModule&#45;&gt;ClientModule -->
<g id="edge7" class="edge">
<title>ClientRoutingModule&#45;&gt;ClientModule</title>
<path fill="none" stroke="black" d="M3525,-122.03C3525,-142.77 3525,-174 3525,-174 3525,-174 2072.82,-174 2072.82,-174"/>
<polygon fill="black" stroke="black" points="2072.82,-170.5 2062.82,-174 2072.82,-177.5 2072.82,-170.5"/>
</g>
<!-- MatButton -->
<g id="node9" class="node">
<title>MatButton</title>
<polygon fill="#8dd3c7" stroke="black" points="3437.17,-122 3434.17,-126 3413.17,-126 3410.17,-122 3360.83,-122 3360.83,-86 3437.17,-86 3437.17,-122"/>
<text text-anchor="middle" x="3399" y="-99.8" font-family="Times,serif" font-size="14.00">MatButton</text>
</g>
<!-- MatButton&#45;&gt;ClientModule -->
<g id="edge8" class="edge">
<title>MatButton&#45;&gt;ClientModule</title>
<path fill="none" stroke="black" d="M3399,-122.22C3399,-142.37 3399,-172 3399,-172 3399,-172 2072.81,-172 2072.81,-172"/>
<polygon fill="black" stroke="black" points="2072.81,-168.5 2062.81,-172 2072.81,-175.5 2072.81,-168.5"/>
</g>
<!-- MatCard -->
<g id="node10" class="node">
<title>MatCard</title>
<polygon fill="#8dd3c7" stroke="black" points="3342.76,-122 3339.76,-126 3318.76,-126 3315.76,-122 3277.24,-122 3277.24,-86 3342.76,-86 3342.76,-122"/>
<text text-anchor="middle" x="3310" y="-99.8" font-family="Times,serif" font-size="14.00">MatCard</text>
</g>
<!-- MatCard&#45;&gt;ClientModule -->
<g id="edge9" class="edge">
<title>MatCard&#45;&gt;ClientModule</title>
<path fill="none" stroke="black" d="M3310,-122.03C3310,-141.58 3310,-170 3310,-170 3310,-170 2072.82,-170 2072.82,-170"/>
<polygon fill="black" stroke="black" points="2072.82,-166.5 2062.82,-170 2072.82,-173.5 2072.82,-166.5"/>
</g>
<!-- MatCardContent -->
<g id="node11" class="node">
<title>MatCardContent</title>
<polygon fill="#8dd3c7" stroke="black" points="3259.09,-122 3256.09,-126 3235.09,-126 3232.09,-122 3148.91,-122 3148.91,-86 3259.09,-86 3259.09,-122"/>
<text text-anchor="middle" x="3204" y="-99.8" font-family="Times,serif" font-size="14.00">MatCardContent</text>
</g>
<!-- MatCardContent&#45;&gt;ClientModule -->
<g id="edge10" class="edge">
<title>MatCardContent&#45;&gt;ClientModule</title>
<path fill="none" stroke="black" d="M3204,-122.11C3204,-141.34 3204,-169 3204,-169 3204,-169 2072.94,-169 2072.94,-169"/>
<polygon fill="black" stroke="black" points="2072.94,-165.5 2062.94,-169 2072.94,-172.5 2072.94,-165.5"/>
</g>
<!-- MatCell -->
<g id="node12" class="node">
<title>MatCell</title>
<polygon fill="#8dd3c7" stroke="black" points="3130.88,-122 3127.88,-126 3106.88,-126 3103.88,-122 3069.12,-122 3069.12,-86 3130.88,-86 3130.88,-122"/>
<text text-anchor="middle" x="3100" y="-99.8" font-family="Times,serif" font-size="14.00">MatCell</text>
</g>
<!-- MatCell&#45;&gt;ClientModule -->
<g id="edge11" class="edge">
<title>MatCell&#45;&gt;ClientModule</title>
<path fill="none" stroke="black" d="M3100,-122.22C3100,-140.83 3100,-167 3100,-167 3100,-167 2072.93,-167 2072.93,-167"/>
<polygon fill="black" stroke="black" points="2072.93,-163.5 2062.93,-167 2072.93,-170.5 2072.93,-163.5"/>
</g>
<!-- MatCellDef -->
<g id="node13" class="node">
<title>MatCellDef</title>
<polygon fill="#8dd3c7" stroke="black" points="3051.36,-122 3048.36,-126 3027.36,-126 3024.36,-122 2968.64,-122 2968.64,-86 3051.36,-86 3051.36,-122"/>
<text text-anchor="middle" x="3010" y="-99.8" font-family="Times,serif" font-size="14.00">MatCellDef</text>
</g>
<!-- MatCellDef&#45;&gt;ClientModule -->
<g id="edge12" class="edge">
<title>MatCellDef&#45;&gt;ClientModule</title>
<path fill="none" stroke="black" d="M3010,-122.3C3010,-140.27 3010,-165 3010,-165 3010,-165 2072.94,-165 2072.94,-165"/>
<polygon fill="black" stroke="black" points="2072.94,-161.5 2062.94,-165 2072.94,-168.5 2072.94,-161.5"/>
</g>
<!-- MatColumnDef -->
<g id="node14" class="node">
<title>MatColumnDef</title>
<polygon fill="#8dd3c7" stroke="black" points="2950.15,-122 2947.15,-126 2926.15,-126 2923.15,-122 2845.85,-122 2845.85,-86 2950.15,-86 2950.15,-122"/>
<text text-anchor="middle" x="2898" y="-99.8" font-family="Times,serif" font-size="14.00">MatColumnDef</text>
</g>
<!-- MatColumnDef&#45;&gt;ClientModule -->
<g id="edge13" class="edge">
<title>MatColumnDef&#45;&gt;ClientModule</title>
<path fill="none" stroke="black" d="M2898,-122.02C2898,-139.37 2898,-163 2898,-163 2898,-163 2072.8,-163 2072.8,-163"/>
<polygon fill="black" stroke="black" points="2072.8,-159.5 2062.8,-163 2072.8,-166.5 2072.8,-159.5"/>
</g>
<!-- MatDatepicker -->
<g id="node15" class="node">
<title>MatDatepicker</title>
<polygon fill="#8dd3c7" stroke="black" points="2827.96,-122 2824.96,-126 2803.96,-126 2800.96,-122 2728.04,-122 2728.04,-86 2827.96,-86 2827.96,-122"/>
<text text-anchor="middle" x="2778" y="-99.8" font-family="Times,serif" font-size="14.00">MatDatepicker</text>
</g>
<!-- MatDatepicker&#45;&gt;ClientModule -->
<g id="edge14" class="edge">
<title>MatDatepicker&#45;&gt;ClientModule</title>
<path fill="none" stroke="black" d="M2778,-122.04C2778,-138.73 2778,-161 2778,-161 2778,-161 2072.81,-161 2072.81,-161"/>
<polygon fill="black" stroke="black" points="2072.81,-157.5 2062.81,-161 2072.81,-164.5 2072.81,-157.5"/>
</g>
<!-- MatDatepickerInput -->
<g id="node16" class="node">
<title>MatDatepickerInput</title>
<polygon fill="#8dd3c7" stroke="black" points="2709.51,-122 2706.51,-126 2685.51,-126 2682.51,-122 2580.49,-122 2580.49,-86 2709.51,-86 2709.51,-122"/>
<text text-anchor="middle" x="2645" y="-99.8" font-family="Times,serif" font-size="14.00">MatDatepickerInput</text>
</g>
<!-- MatDatepickerInput&#45;&gt;ClientModule -->
<g id="edge15" class="edge">
<title>MatDatepickerInput&#45;&gt;ClientModule</title>
<path fill="none" stroke="black" d="M2645,-122.01C2645,-138.05 2645,-159 2645,-159 2645,-159 2073.02,-159 2073.02,-159"/>
<polygon fill="black" stroke="black" points="2073.02,-155.5 2063.02,-159 2073.02,-162.5 2073.02,-155.5"/>
</g>
<!-- MatDatepickerToggle -->
<g id="node17" class="node">
<title>MatDatepickerToggle</title>
<polygon fill="#8dd3c7" stroke="black" points="2561.61,-122 2558.61,-126 2537.61,-126 2534.61,-122 2422.39,-122 2422.39,-86 2561.61,-86 2561.61,-122"/>
<text text-anchor="middle" x="2492" y="-99.8" font-family="Times,serif" font-size="14.00">MatDatepickerToggle</text>
</g>
<!-- MatDatepickerToggle&#45;&gt;ClientModule -->
<g id="edge16" class="edge">
<title>MatDatepickerToggle&#45;&gt;ClientModule</title>
<path fill="none" stroke="black" d="M2492,-122.24C2492,-137.57 2492,-157 2492,-157 2492,-157 2072.94,-157 2072.94,-157"/>
<polygon fill="black" stroke="black" points="2072.94,-153.5 2062.94,-157 2072.94,-160.5 2072.94,-153.5"/>
</g>
<!-- MatDialogActions -->
<g id="node18" class="node">
<title>MatDialogActions</title>
<polygon fill="#8dd3c7" stroke="black" points="2404.2,-122 2401.2,-126 2380.2,-126 2377.2,-122 2283.8,-122 2283.8,-86 2404.2,-86 2404.2,-122"/>
<text text-anchor="middle" x="2344" y="-99.8" font-family="Times,serif" font-size="14.00">MatDialogActions</text>
</g>
<!-- MatDialogActions&#45;&gt;ClientModule -->
<g id="edge17" class="edge">
<title>MatDialogActions&#45;&gt;ClientModule</title>
<path fill="none" stroke="black" d="M2344,-122.12C2344,-136.78 2344,-155 2344,-155 2344,-155 2072.99,-155 2072.99,-155"/>
<polygon fill="black" stroke="black" points="2072.99,-151.5 2062.99,-155 2072.99,-158.5 2072.99,-151.5"/>
</g>
<!-- MatDialogContent -->
<g id="node19" class="node">
<title>MatDialogContent</title>
<polygon fill="#8dd3c7" stroke="black" points="2265.48,-122 2262.48,-126 2241.48,-126 2238.48,-122 2144.52,-122 2144.52,-86 2265.48,-86 2265.48,-122"/>
<text text-anchor="middle" x="2205" y="-99.8" font-family="Times,serif" font-size="14.00">MatDialogContent</text>
</g>
<!-- MatDialogContent&#45;&gt;ClientModule -->
<g id="edge18" class="edge">
<title>MatDialogContent&#45;&gt;ClientModule</title>
<path fill="none" stroke="black" d="M2205,-122.25C2205,-136.18 2205,-153 2205,-153 2205,-153 2073.21,-153 2073.21,-153"/>
<polygon fill="black" stroke="black" points="2073.21,-149.5 2063.21,-153 2073.21,-156.5 2073.21,-149.5"/>
</g>
<!-- MatDialogTitle -->
<g id="node20" class="node">
<title>MatDialogTitle</title>
<polygon fill="#8dd3c7" stroke="black" points="2126.59,-122 2123.59,-126 2102.59,-126 2099.59,-122 2023.41,-122 2023.41,-86 2126.59,-86 2126.59,-122"/>
<text text-anchor="middle" x="2075" y="-99.8" font-family="Times,serif" font-size="14.00">MatDialogTitle</text>
</g>
<!-- MatDialogTitle&#45;&gt;ClientModule -->
<g id="edge19" class="edge">
<title>MatDialogTitle&#45;&gt;ClientModule</title>
<path fill="none" stroke="black" d="M2043.17,-122.11C2043.17,-122.11 2043.17,-140.99 2043.17,-140.99"/>
<polygon fill="black" stroke="black" points="2039.67,-140.99 2043.17,-150.99 2046.67,-140.99 2039.67,-140.99"/>
</g>
<!-- MatFormField -->
<g id="node21" class="node">
<title>MatFormField</title>
<polygon fill="#8dd3c7" stroke="black" points="2005.66,-122 2002.66,-126 1981.66,-126 1978.66,-122 1908.34,-122 1908.34,-86 2005.66,-86 2005.66,-122"/>
<text text-anchor="middle" x="1957" y="-99.8" font-family="Times,serif" font-size="14.00">MatFormField</text>
</g>
<!-- MatFormField&#45;&gt;ClientModule -->
<g id="edge20" class="edge">
<title>MatFormField&#45;&gt;ClientModule</title>
<path fill="none" stroke="black" d="M1987.47,-122.11C1987.47,-122.11 1987.47,-140.99 1987.47,-140.99"/>
<polygon fill="black" stroke="black" points="1983.97,-140.99 1987.47,-150.99 1990.97,-140.99 1983.97,-140.99"/>
</g>
<!-- MatHeaderCell -->
<g id="node22" class="node">
<title>MatHeaderCell</title>
<polygon fill="#8dd3c7" stroke="black" points="1890.29,-122 1887.29,-126 1866.29,-126 1863.29,-122 1787.71,-122 1787.71,-86 1890.29,-86 1890.29,-122"/>
<text text-anchor="middle" x="1839" y="-99.8" font-family="Times,serif" font-size="14.00">MatHeaderCell</text>
</g>
<!-- MatHeaderCell&#45;&gt;ClientModule -->
<g id="edge21" class="edge">
<title>MatHeaderCell&#45;&gt;ClientModule</title>
<path fill="none" stroke="black" d="M1839,-122.25C1839,-136.18 1839,-153 1839,-153 1839,-153 1959.03,-153 1959.03,-153"/>
<polygon fill="black" stroke="black" points="1959.03,-156.5 1969.03,-153 1959.03,-149.5 1959.03,-156.5"/>
</g>
<!-- MatHeaderCellDef -->
<g id="node23" class="node">
<title>MatHeaderCellDef</title>
<polygon fill="#8dd3c7" stroke="black" points="1769.78,-122 1766.78,-126 1745.78,-126 1742.78,-122 1646.22,-122 1646.22,-86 1769.78,-86 1769.78,-122"/>
<text text-anchor="middle" x="1708" y="-99.8" font-family="Times,serif" font-size="14.00">MatHeaderCellDef</text>
</g>
<!-- MatHeaderCellDef&#45;&gt;ClientModule -->
<g id="edge22" class="edge">
<title>MatHeaderCellDef&#45;&gt;ClientModule</title>
<path fill="none" stroke="black" d="M1708,-122.12C1708,-136.78 1708,-155 1708,-155 1708,-155 1959.22,-155 1959.22,-155"/>
<polygon fill="black" stroke="black" points="1959.22,-158.5 1969.22,-155 1959.22,-151.5 1959.22,-158.5"/>
</g>
<!-- MatHeaderRow -->
<g id="node24" class="node">
<title>MatHeaderRow</title>
<polygon fill="#8dd3c7" stroke="black" points="1628.9,-122 1625.9,-126 1604.9,-126 1601.9,-122 1523.1,-122 1523.1,-86 1628.9,-86 1628.9,-122"/>
<text text-anchor="middle" x="1576" y="-99.8" font-family="Times,serif" font-size="14.00">MatHeaderRow</text>
</g>
<!-- MatHeaderRow&#45;&gt;ClientModule -->
<g id="edge23" class="edge">
<title>MatHeaderRow&#45;&gt;ClientModule</title>
<path fill="none" stroke="black" d="M1576,-122.24C1576,-137.57 1576,-157 1576,-157 1576,-157 1958.91,-157 1958.91,-157"/>
<polygon fill="black" stroke="black" points="1958.91,-160.5 1968.91,-157 1958.91,-153.5 1958.91,-160.5"/>
</g>
<!-- MatHeaderRowDef -->
<g id="node25" class="node">
<title>MatHeaderRowDef</title>
<polygon fill="#8dd3c7" stroke="black" points="1505.39,-122 1502.39,-126 1481.39,-126 1478.39,-122 1378.61,-122 1378.61,-86 1505.39,-86 1505.39,-122"/>
<text text-anchor="middle" x="1442" y="-99.8" font-family="Times,serif" font-size="14.00">MatHeaderRowDef</text>
</g>
<!-- MatHeaderRowDef&#45;&gt;ClientModule -->
<g id="edge24" class="edge">
<title>MatHeaderRowDef&#45;&gt;ClientModule</title>
<path fill="none" stroke="black" d="M1442,-122.01C1442,-138.05 1442,-159 1442,-159 1442,-159 1959.03,-159 1959.03,-159"/>
<polygon fill="black" stroke="black" points="1959.03,-162.5 1969.03,-159 1959.03,-155.5 1959.03,-162.5"/>
</g>
<!-- MatIcon -->
<g id="node26" class="node">
<title>MatIcon</title>
<polygon fill="#8dd3c7" stroke="black" points="1360.93,-122 1357.93,-126 1336.93,-126 1333.93,-122 1297.07,-122 1297.07,-86 1360.93,-86 1360.93,-122"/>
<text text-anchor="middle" x="1329" y="-99.8" font-family="Times,serif" font-size="14.00">MatIcon</text>
</g>
<!-- MatIcon&#45;&gt;ClientModule -->
<g id="edge25" class="edge">
<title>MatIcon&#45;&gt;ClientModule</title>
<path fill="none" stroke="black" d="M1329,-122.04C1329,-138.73 1329,-161 1329,-161 1329,-161 1959.05,-161 1959.05,-161"/>
<polygon fill="black" stroke="black" points="1959.05,-164.5 1969.05,-161 1959.05,-157.5 1959.05,-164.5"/>
</g>
<!-- MatIconButton -->
<g id="node27" class="node">
<title>MatIconButton</title>
<polygon fill="#8dd3c7" stroke="black" points="1279.54,-122 1276.54,-126 1255.54,-126 1252.54,-122 1178.46,-122 1178.46,-86 1279.54,-86 1279.54,-122"/>
<text text-anchor="middle" x="1229" y="-99.8" font-family="Times,serif" font-size="14.00">MatIconButton</text>
</g>
<!-- MatIconButton&#45;&gt;ClientModule -->
<g id="edge26" class="edge">
<title>MatIconButton&#45;&gt;ClientModule</title>
<path fill="none" stroke="black" d="M1229,-122.02C1229,-139.37 1229,-163 1229,-163 1229,-163 1959.13,-163 1959.13,-163"/>
<polygon fill="black" stroke="black" points="1959.13,-166.5 1969.13,-163 1959.13,-159.5 1959.13,-166.5"/>
</g>
<!-- MatInput -->
<g id="node28" class="node">
<title>MatInput</title>
<polygon fill="#8dd3c7" stroke="black" points="1160.1,-122 1157.1,-126 1136.1,-126 1133.1,-122 1091.9,-122 1091.9,-86 1160.1,-86 1160.1,-122"/>
<text text-anchor="middle" x="1126" y="-99.8" font-family="Times,serif" font-size="14.00">MatInput</text>
</g>
<!-- MatInput&#45;&gt;ClientModule -->
<g id="edge27" class="edge">
<title>MatInput&#45;&gt;ClientModule</title>
<path fill="none" stroke="black" d="M1126,-122.3C1126,-140.27 1126,-165 1126,-165 1126,-165 1959.09,-165 1959.09,-165"/>
<polygon fill="black" stroke="black" points="1959.09,-168.5 1969.09,-165 1959.09,-161.5 1959.09,-168.5"/>
</g>
<!-- MatLabel -->
<g id="node29" class="node">
<title>MatLabel</title>
<polygon fill="#8dd3c7" stroke="black" points="1074.42,-122 1071.42,-126 1050.42,-126 1047.42,-122 1003.58,-122 1003.58,-86 1074.42,-86 1074.42,-122"/>
<text text-anchor="middle" x="1039" y="-99.8" font-family="Times,serif" font-size="14.00">MatLabel</text>
</g>
<!-- MatLabel&#45;&gt;ClientModule -->
<g id="edge28" class="edge">
<title>MatLabel&#45;&gt;ClientModule</title>
<path fill="none" stroke="black" d="M1039,-122.22C1039,-140.83 1039,-167 1039,-167 1039,-167 1959.21,-167 1959.21,-167"/>
<polygon fill="black" stroke="black" points="1959.21,-170.5 1969.21,-167 1959.21,-163.5 1959.21,-170.5"/>
</g>
<!-- MatOption -->
<g id="node30" class="node">
<title>MatOption</title>
<polygon fill="#8dd3c7" stroke="black" points="985.94,-122 982.94,-126 961.94,-126 958.94,-122 908.06,-122 908.06,-86 985.94,-86 985.94,-122"/>
<text text-anchor="middle" x="947" y="-99.8" font-family="Times,serif" font-size="14.00">MatOption</text>
</g>
<!-- MatOption&#45;&gt;ClientModule -->
<g id="edge29" class="edge">
<title>MatOption&#45;&gt;ClientModule</title>
<path fill="none" stroke="black" d="M947,-122.11C947,-141.34 947,-169 947,-169 947,-169 1959.03,-169 1959.03,-169"/>
<polygon fill="black" stroke="black" points="1959.03,-172.5 1969.03,-169 1959.03,-165.5 1959.03,-172.5"/>
</g>
<!-- MatPaginator -->
<g id="node31" class="node">
<title>MatPaginator</title>
<polygon fill="#8dd3c7" stroke="black" points="890.2,-122 887.2,-126 866.2,-126 863.2,-122 797.8,-122 797.8,-86 890.2,-86 890.2,-122"/>
<text text-anchor="middle" x="844" y="-99.8" font-family="Times,serif" font-size="14.00">MatPaginator</text>
</g>
<!-- MatPaginator&#45;&gt;ClientModule -->
<g id="edge30" class="edge">
<title>MatPaginator&#45;&gt;ClientModule</title>
<path fill="none" stroke="black" d="M844,-122.03C844,-141.58 844,-170 844,-170 844,-170 1958.97,-170 1958.97,-170"/>
<polygon fill="black" stroke="black" points="1958.97,-173.5 1968.97,-170 1958.97,-166.5 1958.97,-173.5"/>
</g>
<!-- MatRow -->
<g id="node32" class="node">
<title>MatRow</title>
<polygon fill="#8dd3c7" stroke="black" points="779.49,-122 776.49,-126 755.49,-126 752.49,-122 714.51,-122 714.51,-86 779.49,-86 779.49,-122"/>
<text text-anchor="middle" x="747" y="-99.8" font-family="Times,serif" font-size="14.00">MatRow</text>
</g>
<!-- MatRow&#45;&gt;ClientModule -->
<g id="edge31" class="edge">
<title>MatRow&#45;&gt;ClientModule</title>
<path fill="none" stroke="black" d="M747,-122.22C747,-142.37 747,-172 747,-172 747,-172 1958.95,-172 1958.95,-172"/>
<polygon fill="black" stroke="black" points="1958.95,-175.5 1968.95,-172 1958.95,-168.5 1958.95,-175.5"/>
</g>
<!-- MatRowDef -->
<g id="node33" class="node">
<title>MatRowDef</title>
<polygon fill="#8dd3c7" stroke="black" points="696.97,-122 693.97,-126 672.97,-126 669.97,-122 611.03,-122 611.03,-86 696.97,-86 696.97,-122"/>
<text text-anchor="middle" x="654" y="-99.8" font-family="Times,serif" font-size="14.00">MatRowDef</text>
</g>
<!-- MatRowDef&#45;&gt;ClientModule -->
<g id="edge32" class="edge">
<title>MatRowDef&#45;&gt;ClientModule</title>
<path fill="none" stroke="black" d="M654,-122.03C654,-142.77 654,-174 654,-174 654,-174 1959.12,-174 1959.12,-174"/>
<polygon fill="black" stroke="black" points="1959.12,-177.5 1969.12,-174 1959.12,-170.5 1959.12,-177.5"/>
</g>
<!-- MatSelect -->
<g id="node34" class="node">
<title>MatSelect</title>
<polygon fill="#8dd3c7" stroke="black" points="593.26,-122 590.26,-126 569.26,-126 566.26,-122 520.74,-122 520.74,-86 593.26,-86 593.26,-122"/>
<text text-anchor="middle" x="557" y="-99.8" font-family="Times,serif" font-size="14.00">MatSelect</text>
</g>
<!-- MatSelect&#45;&gt;ClientModule -->
<g id="edge33" class="edge">
<title>MatSelect&#45;&gt;ClientModule</title>
<path fill="none" stroke="black" d="M557,-122.17C557,-143.5 557,-176 557,-176 557,-176 1959.11,-176 1959.11,-176"/>
<polygon fill="black" stroke="black" points="1959.11,-179.5 1969.11,-176 1959.11,-172.5 1959.11,-179.5"/>
</g>
<!-- MatSuffix -->
<g id="node35" class="node">
<title>MatSuffix</title>
<polygon fill="#8dd3c7" stroke="black" points="502.55,-122 499.55,-126 478.55,-126 475.55,-122 429.45,-122 429.45,-86 502.55,-86 502.55,-122"/>
<text text-anchor="middle" x="466" y="-99.8" font-family="Times,serif" font-size="14.00">MatSuffix</text>
</g>
<!-- MatSuffix&#45;&gt;ClientModule -->
<g id="edge34" class="edge">
<title>MatSuffix&#45;&gt;ClientModule</title>
<path fill="none" stroke="black" d="M466,-122.29C466,-144.21 466,-178 466,-178 466,-178 1959.19,-178 1959.19,-178"/>
<polygon fill="black" stroke="black" points="1959.19,-181.5 1969.19,-178 1959.19,-174.5 1959.19,-181.5"/>
</g>
<!-- MatTab -->
<g id="node36" class="node">
<title>MatTab</title>
<polygon fill="#8dd3c7" stroke="black" points="411.32,-122 408.32,-126 387.32,-126 384.32,-122 350.68,-122 350.68,-86 411.32,-86 411.32,-122"/>
<text text-anchor="middle" x="381" y="-99.8" font-family="Times,serif" font-size="14.00">MatTab</text>
</g>
<!-- MatTab&#45;&gt;ClientModule -->
<g id="edge35" class="edge">
<title>MatTab&#45;&gt;ClientModule</title>
<path fill="none" stroke="black" d="M381,-122.01C381,-144.49 381,-180 381,-180 381,-180 1958.83,-180 1958.83,-180"/>
<polygon fill="black" stroke="black" points="1958.83,-183.5 1968.83,-180 1958.83,-176.5 1958.83,-183.5"/>
</g>
<!-- MatTabGroup -->
<g id="node37" class="node">
<title>MatTabGroup</title>
<polygon fill="#8dd3c7" stroke="black" points="333.08,-122 330.08,-126 309.08,-126 306.08,-122 236.92,-122 236.92,-86 333.08,-86 333.08,-122"/>
<text text-anchor="middle" x="285" y="-99.8" font-family="Times,serif" font-size="14.00">MatTabGroup</text>
</g>
<!-- MatTabGroup&#45;&gt;ClientModule -->
<g id="edge36" class="edge">
<title>MatTabGroup&#45;&gt;ClientModule</title>
<path fill="none" stroke="black" d="M285,-122.09C285,-145.13 285,-182 285,-182 285,-182 1958.8,-182 1958.8,-182"/>
<polygon fill="black" stroke="black" points="1958.8,-185.5 1968.8,-182 1958.8,-178.5 1958.8,-185.5"/>
</g>
<!-- MatTable -->
<g id="node38" class="node">
<title>MatTable</title>
<polygon fill="#8dd3c7" stroke="black" points="219.42,-122 216.42,-126 195.42,-126 192.42,-122 148.58,-122 148.58,-86 219.42,-86 219.42,-122"/>
<text text-anchor="middle" x="184" y="-99.8" font-family="Times,serif" font-size="14.00">MatTable</text>
</g>
<!-- MatTable&#45;&gt;ClientModule -->
<g id="edge37" class="edge">
<title>MatTable&#45;&gt;ClientModule</title>
<path fill="none" stroke="black" d="M184,-122.15C184,-145.76 184,-184 184,-184 184,-184 1958.87,-184 1958.87,-184"/>
<polygon fill="black" stroke="black" points="1958.87,-187.5 1968.87,-184 1958.87,-180.5 1958.87,-187.5"/>
</g>
<!-- MaterialModule -->
<g id="node39" class="node">
<title>MaterialModule</title>
<polygon fill="#8dd3c7" stroke="black" points="130.47,-122 127.47,-126 106.47,-126 103.47,-122 23.53,-122 23.53,-86 130.47,-86 130.47,-122"/>
<text text-anchor="middle" x="77" y="-99.8" font-family="Times,serif" font-size="14.00">MaterialModule</text>
</g>
<!-- MaterialModule&#45;&gt;ClientModule -->
<g id="edge38" class="edge">
<title>MaterialModule&#45;&gt;ClientModule</title>
<path fill="none" stroke="black" d="M77,-122.2C77,-146.36 77,-186 77,-186 77,-186 1959.03,-186 1959.03,-186"/>
<polygon fill="black" stroke="black" points="1959.03,-189.5 1969.03,-186 1959.03,-182.5 1959.03,-189.5"/>
</g>
</g>
</svg>
