<?xml version="1.0" encoding="UTF-8" standalone="no"?>
<!DOCTYPE svg PUBLIC "-//W3C//DTD SVG 1.1//EN"
 "http://www.w3.org/Graphics/SVG/1.1/DTD/svg11.dtd">
<!-- Generated by graphviz version 2.47.0 (20210316.0004)
 -->
<!-- Title: dependencies Pages: 1 -->
<svg width="6438pt" height="211pt"
 viewBox="0.00 0.00 6438.00 211.00" xmlns="http://www.w3.org/2000/svg" xmlns:xlink="http://www.w3.org/1999/xlink">
<g id="graph0" class="graph" transform="scale(1 1) rotate(0) translate(4 207)">
<title>dependencies</title>
<polygon fill="white" stroke="transparent" points="-4,4 -4,-207 6434,-207 6434,4 -4,4"/>
<text text-anchor="start" x="3194.01" y="-42.4" font-family="Times-12" font-weight="bold" font-size="14.00">Legend</text>
<polygon fill="#ffffb3" stroke="transparent" points="2981,-10 2981,-30 3001,-30 3001,-10 2981,-10"/>
<text text-anchor="start" x="3004.63" y="-15.4" font-family="Times-12" font-size="14.00"> &#160;Declarations</text>
<polygon fill="#8dd3c7" stroke="transparent" points="3094,-10 3094,-30 3114,-30 3114,-10 3094,-10"/>
<text text-anchor="start" x="3117.73" y="-15.4" font-family="Times-12" font-size="14.00"> &#160;Module</text>
<polygon fill="#80b1d3" stroke="transparent" points="3180,-10 3180,-30 3200,-30 3200,-10 3180,-10"/>
<text text-anchor="start" x="3203.78" y="-15.4" font-family="Times-12" font-size="14.00"> &#160;Bootstrap</text>
<polygon fill="#fdb462" stroke="transparent" points="3277,-10 3277,-30 3297,-30 3297,-10 3277,-10"/>
<text text-anchor="start" x="3300.67" y="-15.4" font-family="Times-12" font-size="14.00"> &#160;Providers</text>
<polygon fill="#fb8072" stroke="transparent" points="3373,-10 3373,-30 3393,-30 3393,-10 3373,-10"/>
<text text-anchor="start" x="3396.73" y="-15.4" font-family="Times-12" font-size="14.00"> &#160;Exports</text>
<g id="clust1" class="cluster">
<title>cluster_TrainingModule</title>
<polygon fill="none" stroke="black" stroke-dasharray="1,5" points="8,-70 8,-195 6422,-195 6422,-70 8,-70"/>
</g>
<g id="clust12" class="cluster">
<title>cluster_TrainingModule_imports</title>
<polygon fill="none" stroke="black" points="1791,-78 1791,-130 6414,-130 6414,-78 1791,-78"/>
</g>
<g id="clust2" class="cluster">
<title>cluster_TrainingModule_declarations</title>
<polygon fill="none" stroke="black" points="16,-78 16,-130 1783,-130 1783,-78 16,-78"/>
</g>
<!-- AddTrainingComponent -->
<g id="node1" class="node">
<title>AddTrainingComponent</title>
<polygon fill="#ffffb3" stroke="black" points="1774.65,-122 1621.35,-122 1621.35,-86 1774.65,-86 1774.65,-122"/>
<text text-anchor="middle" x="1698" y="-99.8" font-family="Times,serif" font-size="14.00">AddTrainingComponent</text>
</g>
<!-- TrainingModule -->
<g id="node10" class="node">
<title>TrainingModule</title>
<polygon fill="#8dd3c7" stroke="black" points="3546.76,-187 3543.76,-191 3522.76,-191 3519.76,-187 3439.24,-187 3439.24,-151 3546.76,-151 3546.76,-187"/>
<text text-anchor="middle" x="3493" y="-164.8" font-family="Times,serif" font-size="14.00">TrainingModule</text>
</g>
<!-- AddTrainingComponent&#45;&gt;TrainingModule -->
<g id="edge1" class="edge">
<title>AddTrainingComponent&#45;&gt;TrainingModule</title>
<path fill="none" stroke="black" d="M1698,-122.28C1698,-143.32 1698,-175 1698,-175 1698,-175 3428.79,-175 3428.79,-175"/>
<polygon fill="black" stroke="black" points="3428.79,-178.5 3438.79,-175 3428.79,-171.5 3428.79,-178.5"/>
</g>
<!-- AppTrainingDialogContentComponent -->
<g id="node2" class="node">
<title>AppTrainingDialogContentComponent</title>
<polygon fill="#ffffb3" stroke="black" points="1603.08,-122 1366.92,-122 1366.92,-86 1603.08,-86 1603.08,-122"/>
<text text-anchor="middle" x="1485" y="-99.8" font-family="Times,serif" font-size="14.00">AppTrainingDialogContentComponent</text>
</g>
<!-- AppTrainingDialogContentComponent&#45;&gt;TrainingModule -->
<g id="edge2" class="edge">
<title>AppTrainingDialogContentComponent&#45;&gt;TrainingModule</title>
<path fill="none" stroke="black" d="M1485,-122.17C1485,-143.5 1485,-176 1485,-176 1485,-176 3429.03,-176 3429.03,-176"/>
<polygon fill="black" stroke="black" points="3429.03,-179.5 3439.03,-176 3429.03,-172.5 3429.03,-179.5"/>
</g>
<!-- DetailTrainingComponent -->
<g id="node3" class="node">
<title>DetailTrainingComponent</title>
<polygon fill="#ffffb3" stroke="black" points="1348.75,-122 1185.25,-122 1185.25,-86 1348.75,-86 1348.75,-122"/>
<text text-anchor="middle" x="1267" y="-99.8" font-family="Times,serif" font-size="14.00">DetailTrainingComponent</text>
</g>
<!-- DetailTrainingComponent&#45;&gt;TrainingModule -->
<g id="edge3" class="edge">
<title>DetailTrainingComponent&#45;&gt;TrainingModule</title>
<path fill="none" stroke="black" d="M1267,-122.04C1267,-143.66 1267,-177 1267,-177 1267,-177 3429.08,-177 3429.08,-177"/>
<polygon fill="black" stroke="black" points="3429.08,-180.5 3439.08,-177 3429.08,-173.5 3429.08,-180.5"/>
</g>
<!-- EditTrainingComponent -->
<g id="node4" class="node">
<title>EditTrainingComponent</title>
<polygon fill="#ffffb3" stroke="black" points="1167.38,-122 1014.62,-122 1014.62,-86 1167.38,-86 1167.38,-122"/>
<text text-anchor="middle" x="1091" y="-99.8" font-family="Times,serif" font-size="14.00">EditTrainingComponent</text>
</g>
<!-- EditTrainingComponent&#45;&gt;TrainingModule -->
<g id="edge4" class="edge">
<title>EditTrainingComponent&#45;&gt;TrainingModule</title>
<path fill="none" stroke="black" d="M1091,-122.16C1091,-144.35 1091,-179 1091,-179 1091,-179 3429.18,-179 3429.18,-179"/>
<polygon fill="black" stroke="black" points="3429.18,-182.5 3439.18,-179 3429.18,-175.5 3429.18,-182.5"/>
</g>
<!-- ErrorDialogComponent -->
<g id="node5" class="node">
<title>ErrorDialogComponent</title>
<polygon fill="#ffffb3" stroke="black" points="996.47,-122 847.53,-122 847.53,-86 996.47,-86 996.47,-122"/>
<text text-anchor="middle" x="922" y="-99.8" font-family="Times,serif" font-size="14.00">ErrorDialogComponent</text>
</g>
<!-- ErrorDialogComponent&#45;&gt;TrainingModule -->
<g id="edge5" class="edge">
<title>ErrorDialogComponent&#45;&gt;TrainingModule</title>
<path fill="none" stroke="black" d="M922,-122.01C922,-144.49 922,-180 922,-180 922,-180 3429,-180 3429,-180"/>
<polygon fill="black" stroke="black" points="3429,-183.5 3439,-180 3429,-176.5 3429,-183.5"/>
</g>
<!-- LifeCycleComponent -->
<g id="node6" class="node">
<title>LifeCycleComponent</title>
<polygon fill="#ffffb3" stroke="black" points="829.81,-122 692.19,-122 692.19,-86 829.81,-86 829.81,-122"/>
<text text-anchor="middle" x="761" y="-99.8" font-family="Times,serif" font-size="14.00">LifeCycleComponent</text>
</g>
<!-- LifeCycleComponent&#45;&gt;TrainingModule -->
<g id="edge6" class="edge">
<title>LifeCycleComponent&#45;&gt;TrainingModule</title>
<path fill="none" stroke="black" d="M761,-122.09C761,-145.13 761,-182 761,-182 761,-182 3429.04,-182 3429.04,-182"/>
<polygon fill="black" stroke="black" points="3429.04,-185.5 3439.04,-182 3429.04,-178.5 3429.04,-185.5"/>
</g>
<!-- TrainingComponent -->
<g id="node7" class="node">
<title>TrainingComponent</title>
<polygon fill="#ffffb3" stroke="black" points="674.54,-122 545.46,-122 545.46,-86 674.54,-86 674.54,-122"/>
<text text-anchor="middle" x="610" y="-99.8" font-family="Times,serif" font-size="14.00">TrainingComponent</text>
</g>
<!-- TrainingComponent&#45;&gt;TrainingModule -->
<g id="edge7" class="edge">
<title>TrainingComponent&#45;&gt;TrainingModule</title>
<path fill="none" stroke="black" d="M610,-122.32C610,-145.66 610,-183 610,-183 610,-183 3428.93,-183 3428.93,-183"/>
<polygon fill="black" stroke="black" points="3428.93,-186.5 3438.93,-183 3428.93,-179.5 3428.93,-186.5"/>
</g>
<!-- TrainingLifecycleDialogComponent -->
<g id="node8" class="node">
<title>TrainingLifecycleDialogComponent</title>
<polygon fill="#ffffb3" stroke="black" points="527.5,-122 306.5,-122 306.5,-86 527.5,-86 527.5,-122"/>
<text text-anchor="middle" x="417" y="-99.8" font-family="Times,serif" font-size="14.00">TrainingLifecycleDialogComponent</text>
</g>
<!-- TrainingLifecycleDialogComponent&#45;&gt;TrainingModule -->
<g id="edge8" class="edge">
<title>TrainingLifecycleDialogComponent&#45;&gt;TrainingModule</title>
<path fill="none" stroke="black" d="M417,-122.38C417,-146.28 417,-185 417,-185 417,-185 3428.96,-185 3428.96,-185"/>
<polygon fill="black" stroke="black" points="3428.96,-188.5 3438.96,-185 3428.96,-181.5 3428.96,-188.5"/>
</g>
<!-- TrainingLifecycleDialogContentComponent -->
<g id="node9" class="node">
<title>TrainingLifecycleDialogContentComponent</title>
<polygon fill="#ffffb3" stroke="black" points="288.33,-122 23.67,-122 23.67,-86 288.33,-86 288.33,-122"/>
<text text-anchor="middle" x="156" y="-99.8" font-family="Times,serif" font-size="14.00">TrainingLifecycleDialogContentComponent</text>
</g>
<!-- TrainingLifecycleDialogContentComponent&#45;&gt;TrainingModule -->
<g id="edge9" class="edge">
<title>TrainingLifecycleDialogContentComponent&#45;&gt;TrainingModule</title>
<path fill="none" stroke="black" d="M156,-122.2C156,-146.36 156,-186 156,-186 156,-186 3429.23,-186 3429.23,-186"/>
<polygon fill="black" stroke="black" points="3429.23,-189.5 3439.23,-186 3429.23,-182.5 3429.23,-189.5"/>
</g>
<!-- MatButton -->
<g id="node11" class="node">
<title>MatButton</title>
<polygon fill="#8dd3c7" stroke="black" points="6406.17,-122 6403.17,-126 6382.17,-126 6379.17,-122 6329.83,-122 6329.83,-86 6406.17,-86 6406.17,-122"/>
<text text-anchor="middle" x="6368" y="-99.8" font-family="Times,serif" font-size="14.00">MatButton</text>
</g>
<!-- MatButton&#45;&gt;TrainingModule -->
<g id="edge10" class="edge">
<title>MatButton&#45;&gt;TrainingModule</title>
<path fill="none" stroke="black" d="M6368,-122.2C6368,-146.36 6368,-186 6368,-186 6368,-186 3556.92,-186 3556.92,-186"/>
<polygon fill="black" stroke="black" points="3556.92,-182.5 3546.92,-186 3556.92,-189.5 3556.92,-182.5"/>
</g>
<!-- MatCard -->
<g id="node12" class="node">
<title>MatCard</title>
<polygon fill="#8dd3c7" stroke="black" points="6311.76,-122 6308.76,-126 6287.76,-126 6284.76,-122 6246.24,-122 6246.24,-86 6311.76,-86 6311.76,-122"/>
<text text-anchor="middle" x="6279" y="-99.8" font-family="Times,serif" font-size="14.00">MatCard</text>
</g>
<!-- MatCard&#45;&gt;TrainingModule -->
<g id="edge11" class="edge">
<title>MatCard&#45;&gt;TrainingModule</title>
<path fill="none" stroke="black" d="M6279,-122.38C6279,-146.28 6279,-185 6279,-185 6279,-185 3556.78,-185 3556.78,-185"/>
<polygon fill="black" stroke="black" points="3556.78,-181.5 3546.78,-185 3556.78,-188.5 3556.78,-181.5"/>
</g>
<!-- MatCardContent -->
<g id="node13" class="node">
<title>MatCardContent</title>
<polygon fill="#8dd3c7" stroke="black" points="6228.09,-122 6225.09,-126 6204.09,-126 6201.09,-122 6117.91,-122 6117.91,-86 6228.09,-86 6228.09,-122"/>
<text text-anchor="middle" x="6173" y="-99.8" font-family="Times,serif" font-size="14.00">MatCardContent</text>
</g>
<!-- MatCardContent&#45;&gt;TrainingModule -->
<g id="edge12" class="edge">
<title>MatCardContent&#45;&gt;TrainingModule</title>
<path fill="none" stroke="black" d="M6173,-122.32C6173,-145.66 6173,-183 6173,-183 6173,-183 3556.84,-183 3556.84,-183"/>
<polygon fill="black" stroke="black" points="3556.84,-179.5 3546.84,-183 3556.84,-186.5 3556.84,-179.5"/>
</g>
<!-- MatCardHeader -->
<g id="node14" class="node">
<title>MatCardHeader</title>
<polygon fill="#8dd3c7" stroke="black" points="6100.17,-122 6097.17,-126 6076.17,-126 6073.17,-122 5993.83,-122 5993.83,-86 6100.17,-86 6100.17,-122"/>
<text text-anchor="middle" x="6047" y="-99.8" font-family="Times,serif" font-size="14.00">MatCardHeader</text>
</g>
<!-- MatCardHeader&#45;&gt;TrainingModule -->
<g id="edge13" class="edge">
<title>MatCardHeader&#45;&gt;TrainingModule</title>
<path fill="none" stroke="black" d="M6047,-122.09C6047,-145.13 6047,-182 6047,-182 6047,-182 3556.93,-182 3556.93,-182"/>
<polygon fill="black" stroke="black" points="3556.93,-178.5 3546.93,-182 3556.93,-185.5 3556.93,-178.5"/>
</g>
<!-- MatCardTitle -->
<g id="node15" class="node">
<title>MatCardTitle</title>
<polygon fill="#8dd3c7" stroke="black" points="5976.2,-122 5973.2,-126 5952.2,-126 5949.2,-122 5883.8,-122 5883.8,-86 5976.2,-86 5976.2,-122"/>
<text text-anchor="middle" x="5930" y="-99.8" font-family="Times,serif" font-size="14.00">MatCardTitle</text>
</g>
<!-- MatCardTitle&#45;&gt;TrainingModule -->
<g id="edge14" class="edge">
<title>MatCardTitle&#45;&gt;TrainingModule</title>
<path fill="none" stroke="black" d="M5930,-122.01C5930,-144.49 5930,-180 5930,-180 5930,-180 3557.03,-180 3557.03,-180"/>
<polygon fill="black" stroke="black" points="3557.03,-176.5 3547.03,-180 3557.03,-183.5 3557.03,-176.5"/>
</g>
<!-- MatCell -->
<g id="node16" class="node">
<title>MatCell</title>
<polygon fill="#8dd3c7" stroke="black" points="5865.88,-122 5862.88,-126 5841.88,-126 5838.88,-122 5804.12,-122 5804.12,-86 5865.88,-86 5865.88,-122"/>
<text text-anchor="middle" x="5835" y="-99.8" font-family="Times,serif" font-size="14.00">MatCell</text>
</g>
<!-- MatCell&#45;&gt;TrainingModule -->
<g id="edge15" class="edge">
<title>MatCell&#45;&gt;TrainingModule</title>
<path fill="none" stroke="black" d="M5835,-122.16C5835,-144.35 5835,-179 5835,-179 5835,-179 3556.88,-179 3556.88,-179"/>
<polygon fill="black" stroke="black" points="3556.88,-175.5 3546.88,-179 3556.88,-182.5 3556.88,-175.5"/>
</g>
<!-- MatCellDef -->
<g id="node17" class="node">
<title>MatCellDef</title>
<polygon fill="#8dd3c7" stroke="black" points="5786.36,-122 5783.36,-126 5762.36,-126 5759.36,-122 5703.64,-122 5703.64,-86 5786.36,-86 5786.36,-122"/>
<text text-anchor="middle" x="5745" y="-99.8" font-family="Times,serif" font-size="14.00">MatCellDef</text>
</g>
<!-- MatCellDef&#45;&gt;TrainingModule -->
<g id="edge16" class="edge">
<title>MatCellDef&#45;&gt;TrainingModule</title>
<path fill="none" stroke="black" d="M5745,-122.04C5745,-143.66 5745,-177 5745,-177 5745,-177 3557,-177 3557,-177"/>
<polygon fill="black" stroke="black" points="3557,-173.5 3547,-177 3557,-180.5 3557,-173.5"/>
</g>
<!-- MatCheckbox -->
<g id="node18" class="node">
<title>MatCheckbox</title>
<polygon fill="#8dd3c7" stroke="black" points="5685.82,-122 5682.82,-126 5661.82,-126 5658.82,-122 5590.18,-122 5590.18,-86 5685.82,-86 5685.82,-122"/>
<text text-anchor="middle" x="5638" y="-99.8" font-family="Times,serif" font-size="14.00">MatCheckbox</text>
</g>
<!-- MatCheckbox&#45;&gt;TrainingModule -->
<g id="edge17" class="edge">
<title>MatCheckbox&#45;&gt;TrainingModule</title>
<path fill="none" stroke="black" d="M5638,-122.17C5638,-143.5 5638,-176 5638,-176 5638,-176 3556.83,-176 3556.83,-176"/>
<polygon fill="black" stroke="black" points="3556.83,-172.5 3546.83,-176 3556.83,-179.5 3556.83,-172.5"/>
</g>
<!-- MatChipListbox -->
<g id="node19" class="node">
<title>MatChipListbox</title>
<polygon fill="#8dd3c7" stroke="black" points="5572.06,-122 5569.06,-126 5548.06,-126 5545.06,-122 5463.94,-122 5463.94,-86 5572.06,-86 5572.06,-122"/>
<text text-anchor="middle" x="5518" y="-99.8" font-family="Times,serif" font-size="14.00">MatChipListbox</text>
</g>
<!-- MatChipListbox&#45;&gt;TrainingModule -->
<g id="edge18" class="edge">
<title>MatChipListbox&#45;&gt;TrainingModule</title>
<path fill="none" stroke="black" d="M5518,-122.28C5518,-143.32 5518,-175 5518,-175 5518,-175 3556.9,-175 3556.9,-175"/>
<polygon fill="black" stroke="black" points="3556.9,-171.5 3546.9,-175 3556.9,-178.5 3556.9,-171.5"/>
</g>
<!-- MatChipOption -->
<g id="node20" class="node">
<title>MatChipOption</title>
<polygon fill="#8dd3c7" stroke="black" points="5445.17,-122 5442.17,-126 5421.17,-126 5418.17,-122 5340.83,-122 5340.83,-86 5445.17,-86 5445.17,-122"/>
<text text-anchor="middle" x="5393" y="-99.8" font-family="Times,serif" font-size="14.00">MatChipOption</text>
</g>
<!-- MatChipOption&#45;&gt;TrainingModule -->
<g id="edge19" class="edge">
<title>MatChipOption&#45;&gt;TrainingModule</title>
<path fill="none" stroke="black" d="M5393,-122.13C5393,-142.57 5393,-173 5393,-173 5393,-173 3556.8,-173 3556.8,-173"/>
<polygon fill="black" stroke="black" points="3556.8,-169.5 3546.8,-173 3556.8,-176.5 3556.8,-169.5"/>
</g>
<!-- MatColumnDef -->
<g id="node21" class="node">
<title>MatColumnDef</title>
<polygon fill="#8dd3c7" stroke="black" points="5322.15,-122 5319.15,-126 5298.15,-126 5295.15,-122 5217.85,-122 5217.85,-86 5322.15,-86 5322.15,-122"/>
<text text-anchor="middle" x="5270" y="-99.8" font-family="Times,serif" font-size="14.00">MatColumnDef</text>
</g>
<!-- MatColumnDef&#45;&gt;TrainingModule -->
<g id="edge20" class="edge">
<title>MatColumnDef&#45;&gt;TrainingModule</title>
<path fill="none" stroke="black" d="M5270,-122.22C5270,-142.37 5270,-172 5270,-172 5270,-172 3557.15,-172 3557.15,-172"/>
<polygon fill="black" stroke="black" points="3557.15,-168.5 3547.15,-172 3557.15,-175.5 3557.15,-168.5"/>
</g>
<!-- MatDatepicker -->
<g id="node22" class="node">
<title>MatDatepicker</title>
<polygon fill="#8dd3c7" stroke="black" points="5199.96,-122 5196.96,-126 5175.96,-126 5172.96,-122 5100.04,-122 5100.04,-86 5199.96,-86 5199.96,-122"/>
<text text-anchor="middle" x="5150" y="-99.8" font-family="Times,serif" font-size="14.00">MatDatepicker</text>
</g>
<!-- MatDatepicker&#45;&gt;TrainingModule -->
<g id="edge21" class="edge">
<title>MatDatepicker&#45;&gt;TrainingModule</title>
<path fill="none" stroke="black" d="M5150,-122.03C5150,-141.58 5150,-170 5150,-170 5150,-170 3557.19,-170 3557.19,-170"/>
<polygon fill="black" stroke="black" points="3557.19,-166.5 3547.19,-170 3557.19,-173.5 3557.19,-166.5"/>
</g>
<!-- MatDatepickerInput -->
<g id="node23" class="node">
<title>MatDatepickerInput</title>
<polygon fill="#8dd3c7" stroke="black" points="5081.51,-122 5078.51,-126 5057.51,-126 5054.51,-122 4952.49,-122 4952.49,-86 5081.51,-86 5081.51,-122"/>
<text text-anchor="middle" x="5017" y="-99.8" font-family="Times,serif" font-size="14.00">MatDatepickerInput</text>
</g>
<!-- MatDatepickerInput&#45;&gt;TrainingModule -->
<g id="edge22" class="edge">
<title>MatDatepickerInput&#45;&gt;TrainingModule</title>
<path fill="none" stroke="black" d="M5017,-122.11C5017,-141.34 5017,-169 5017,-169 5017,-169 3556.79,-169 3556.79,-169"/>
<polygon fill="black" stroke="black" points="3556.79,-165.5 3546.79,-169 3556.79,-172.5 3556.79,-165.5"/>
</g>
<!-- MatDatepickerToggle -->
<g id="node24" class="node">
<title>MatDatepickerToggle</title>
<polygon fill="#8dd3c7" stroke="black" points="4933.61,-122 4930.61,-126 4909.61,-126 4906.61,-122 4794.39,-122 4794.39,-86 4933.61,-86 4933.61,-122"/>
<text text-anchor="middle" x="4864" y="-99.8" font-family="Times,serif" font-size="14.00">MatDatepickerToggle</text>
</g>
<!-- MatDatepickerToggle&#45;&gt;TrainingModule -->
<g id="edge23" class="edge">
<title>MatDatepickerToggle&#45;&gt;TrainingModule</title>
<path fill="none" stroke="black" d="M4864,-122.22C4864,-140.83 4864,-167 4864,-167 4864,-167 3557.17,-167 3557.17,-167"/>
<polygon fill="black" stroke="black" points="3557.17,-163.5 3547.17,-167 3557.17,-170.5 3557.17,-163.5"/>
</g>
<!-- MatDialogActions -->
<g id="node25" class="node">
<title>MatDialogActions</title>
<polygon fill="#8dd3c7" stroke="black" points="4776.2,-122 4773.2,-126 4752.2,-126 4749.2,-122 4655.8,-122 4655.8,-86 4776.2,-86 4776.2,-122"/>
<text text-anchor="middle" x="4716" y="-99.8" font-family="Times,serif" font-size="14.00">MatDialogActions</text>
</g>
<!-- MatDialogActions&#45;&gt;TrainingModule -->
<g id="edge24" class="edge">
<title>MatDialogActions&#45;&gt;TrainingModule</title>
<path fill="none" stroke="black" d="M4716,-122.27C4716,-140.56 4716,-166 4716,-166 4716,-166 3557.13,-166 3557.13,-166"/>
<polygon fill="black" stroke="black" points="3557.13,-162.5 3547.13,-166 3557.13,-169.5 3557.13,-162.5"/>
</g>
<!-- MatDialogClose -->
<g id="node26" class="node">
<title>MatDialogClose</title>
<polygon fill="#8dd3c7" stroke="black" points="4638.04,-122 4635.04,-126 4614.04,-126 4611.04,-122 4529.96,-122 4529.96,-86 4638.04,-86 4638.04,-122"/>
<text text-anchor="middle" x="4584" y="-99.8" font-family="Times,serif" font-size="14.00">MatDialogClose</text>
</g>
<!-- MatDialogClose&#45;&gt;TrainingModule -->
<g id="edge25" class="edge">
<title>MatDialogClose&#45;&gt;TrainingModule</title>
<path fill="none" stroke="black" d="M4584,-122C4584,-139.68 4584,-164 4584,-164 4584,-164 3557.1,-164 3557.1,-164"/>
<polygon fill="black" stroke="black" points="3557.1,-160.5 3547.1,-164 3557.1,-167.5 3557.1,-160.5"/>
</g>
<!-- MatDialogContent -->
<g id="node27" class="node">
<title>MatDialogContent</title>
<polygon fill="#8dd3c7" stroke="black" points="4511.48,-122 4508.48,-126 4487.48,-126 4484.48,-122 4390.52,-122 4390.52,-86 4511.48,-86 4511.48,-122"/>
<text text-anchor="middle" x="4451" y="-99.8" font-family="Times,serif" font-size="14.00">MatDialogContent</text>
</g>
<!-- MatDialogContent&#45;&gt;TrainingModule -->
<g id="edge26" class="edge">
<title>MatDialogContent&#45;&gt;TrainingModule</title>
<path fill="none" stroke="black" d="M4451,-122.02C4451,-139.37 4451,-163 4451,-163 4451,-163 3556.9,-163 3556.9,-163"/>
<polygon fill="black" stroke="black" points="3556.9,-159.5 3546.9,-163 3556.9,-166.5 3556.9,-159.5"/>
</g>
<!-- MatDialogTitle -->
<g id="node28" class="node">
<title>MatDialogTitle</title>
<polygon fill="#8dd3c7" stroke="black" points="4372.59,-122 4369.59,-126 4348.59,-126 4345.59,-122 4269.41,-122 4269.41,-86 4372.59,-86 4372.59,-122"/>
<text text-anchor="middle" x="4321" y="-99.8" font-family="Times,serif" font-size="14.00">MatDialogTitle</text>
</g>
<!-- MatDialogTitle&#45;&gt;TrainingModule -->
<g id="edge27" class="edge">
<title>MatDialogTitle&#45;&gt;TrainingModule</title>
<path fill="none" stroke="black" d="M4321,-122.03C4321,-139.06 4321,-162 4321,-162 4321,-162 3557.01,-162 3557.01,-162"/>
<polygon fill="black" stroke="black" points="3557.01,-158.5 3547.01,-162 3557.01,-165.5 3557.01,-158.5"/>
</g>
<!-- MatDivider -->
<g id="node29" class="node">
<title>MatDivider</title>
<polygon fill="#8dd3c7" stroke="black" points="4251.81,-122 4248.81,-126 4227.81,-126 4224.81,-122 4170.19,-122 4170.19,-86 4251.81,-86 4251.81,-122"/>
<text text-anchor="middle" x="4211" y="-99.8" font-family="Times,serif" font-size="14.00">MatDivider</text>
</g>
<!-- MatDivider&#45;&gt;TrainingModule -->
<g id="edge28" class="edge">
<title>MatDivider&#45;&gt;TrainingModule</title>
<path fill="none" stroke="black" d="M4211,-122.03C4211,-138.4 4211,-160 4211,-160 4211,-160 3556.97,-160 3556.97,-160"/>
<polygon fill="black" stroke="black" points="3556.97,-156.5 3546.97,-160 3556.97,-163.5 3556.97,-156.5"/>
</g>
<!-- MatError -->
<g id="node30" class="node">
<title>MatError</title>
<polygon fill="#8dd3c7" stroke="black" points="4152.08,-122 4149.08,-126 4128.08,-126 4125.08,-122 4083.92,-122 4083.92,-86 4152.08,-86 4152.08,-122"/>
<text text-anchor="middle" x="4118" y="-99.8" font-family="Times,serif" font-size="14.00">MatError</text>
</g>
<!-- MatError&#45;&gt;TrainingModule -->
<g id="edge29" class="edge">
<title>MatError&#45;&gt;TrainingModule</title>
<path fill="none" stroke="black" d="M4118,-122.01C4118,-138.05 4118,-159 4118,-159 4118,-159 3556.83,-159 3556.83,-159"/>
<polygon fill="black" stroke="black" points="3556.83,-155.5 3546.83,-159 3556.83,-162.5 3556.83,-155.5"/>
</g>
<!-- MatFormField -->
<g id="node31" class="node">
<title>MatFormField</title>
<polygon fill="#8dd3c7" stroke="black" points="4065.66,-122 4062.66,-126 4041.66,-126 4038.66,-122 3968.34,-122 3968.34,-86 4065.66,-86 4065.66,-122"/>
<text text-anchor="middle" x="4017" y="-99.8" font-family="Times,serif" font-size="14.00">MatFormField</text>
</g>
<!-- MatFormField&#45;&gt;TrainingModule -->
<g id="edge30" class="edge">
<title>MatFormField&#45;&gt;TrainingModule</title>
<path fill="none" stroke="black" d="M4017,-122.24C4017,-137.57 4017,-157 4017,-157 4017,-157 3557.1,-157 3557.1,-157"/>
<polygon fill="black" stroke="black" points="3557.1,-153.5 3547.1,-157 3557.1,-160.5 3557.1,-153.5"/>
</g>
<!-- MatGridList -->
<g id="node32" class="node">
<title>MatGridList</title>
<polygon fill="#8dd3c7" stroke="black" points="3949.99,-122 3946.99,-126 3925.99,-126 3922.99,-122 3864.01,-122 3864.01,-86 3949.99,-86 3949.99,-122"/>
<text text-anchor="middle" x="3907" y="-99.8" font-family="Times,serif" font-size="14.00">MatGridList</text>
</g>
<!-- MatGridList&#45;&gt;TrainingModule -->
<g id="edge31" class="edge">
<title>MatGridList&#45;&gt;TrainingModule</title>
<path fill="none" stroke="black" d="M3907,-122.19C3907,-137.18 3907,-156 3907,-156 3907,-156 3557.12,-156 3557.12,-156"/>
<polygon fill="black" stroke="black" points="3557.12,-152.5 3547.12,-156 3557.12,-159.5 3557.12,-152.5"/>
</g>
<!-- MatGridTile -->
<g id="node33" class="node">
<title>MatGridTile</title>
<polygon fill="#8dd3c7" stroke="black" points="3846.26,-122 3843.26,-126 3822.26,-126 3819.26,-122 3759.74,-122 3759.74,-86 3846.26,-86 3846.26,-122"/>
<text text-anchor="middle" x="3803" y="-99.8" font-family="Times,serif" font-size="14.00">MatGridTile</text>
</g>
<!-- MatGridTile&#45;&gt;TrainingModule -->
<g id="edge32" class="edge">
<title>MatGridTile&#45;&gt;TrainingModule</title>
<path fill="none" stroke="black" d="M3803,-122.05C3803,-136.37 3803,-154 3803,-154 3803,-154 3557,-154 3557,-154"/>
<polygon fill="black" stroke="black" points="3557,-150.5 3547,-154 3557,-157.5 3557,-150.5"/>
</g>
<!-- MatHeaderCell -->
<g id="node34" class="node">
<title>MatHeaderCell</title>
<polygon fill="#8dd3c7" stroke="black" points="3741.29,-122 3738.29,-126 3717.29,-126 3714.29,-122 3638.71,-122 3638.71,-86 3741.29,-86 3741.29,-122"/>
<text text-anchor="middle" x="3690" y="-99.8" font-family="Times,serif" font-size="14.00">MatHeaderCell</text>
</g>
<!-- MatHeaderCell&#45;&gt;TrainingModule -->
<g id="edge33" class="edge">
<title>MatHeaderCell&#45;&gt;TrainingModule</title>
<path fill="none" stroke="black" d="M3690,-122.25C3690,-136.18 3690,-153 3690,-153 3690,-153 3556.83,-153 3556.83,-153"/>
<polygon fill="black" stroke="black" points="3556.83,-149.5 3546.83,-153 3556.83,-156.5 3556.83,-149.5"/>
</g>
<!-- MatHeaderCellDef -->
<g id="node35" class="node">
<title>MatHeaderCellDef</title>
<polygon fill="#8dd3c7" stroke="black" points="3620.78,-122 3617.78,-126 3596.78,-126 3593.78,-122 3497.22,-122 3497.22,-86 3620.78,-86 3620.78,-122"/>
<text text-anchor="middle" x="3559" y="-99.8" font-family="Times,serif" font-size="14.00">MatHeaderCellDef</text>
</g>
<!-- MatHeaderCellDef&#45;&gt;TrainingModule -->
<g id="edge34" class="edge">
<title>MatHeaderCellDef&#45;&gt;TrainingModule</title>
<path fill="none" stroke="black" d="M3522.12,-122.11C3522.12,-122.11 3522.12,-140.99 3522.12,-140.99"/>
<polygon fill="black" stroke="black" points="3518.62,-140.99 3522.12,-150.99 3525.62,-140.99 3518.62,-140.99"/>
</g>
<!-- MatHeaderRow -->
<g id="node36" class="node">
<title>MatHeaderRow</title>
<polygon fill="#8dd3c7" stroke="black" points="3479.9,-122 3476.9,-126 3455.9,-126 3452.9,-122 3374.1,-122 3374.1,-86 3479.9,-86 3479.9,-122"/>
<text text-anchor="middle" x="3427" y="-99.8" font-family="Times,serif" font-size="14.00">MatHeaderRow</text>
</g>
<!-- MatHeaderRow&#45;&gt;TrainingModule -->
<g id="edge35" class="edge">
<title>MatHeaderRow&#45;&gt;TrainingModule</title>
<path fill="none" stroke="black" d="M3459.41,-122.11C3459.41,-122.11 3459.41,-140.99 3459.41,-140.99"/>
<polygon fill="black" stroke="black" points="3455.91,-140.99 3459.41,-150.99 3462.91,-140.99 3455.91,-140.99"/>
</g>
<!-- MatHeaderRowDef -->
<g id="node37" class="node">
<title>MatHeaderRowDef</title>
<polygon fill="#8dd3c7" stroke="black" points="3356.39,-122 3353.39,-126 3332.39,-126 3329.39,-122 3229.61,-122 3229.61,-86 3356.39,-86 3356.39,-122"/>
<text text-anchor="middle" x="3293" y="-99.8" font-family="Times,serif" font-size="14.00">MatHeaderRowDef</text>
</g>
<!-- MatHeaderRowDef&#45;&gt;TrainingModule -->
<g id="edge36" class="edge">
<title>MatHeaderRowDef&#45;&gt;TrainingModule</title>
<path fill="none" stroke="black" d="M3293,-122.25C3293,-136.18 3293,-153 3293,-153 3293,-153 3429.14,-153 3429.14,-153"/>
<polygon fill="black" stroke="black" points="3429.14,-156.5 3439.14,-153 3429.14,-149.5 3429.14,-156.5"/>
</g>
<!-- MatIcon -->
<g id="node38" class="node">
<title>MatIcon</title>
<polygon fill="#8dd3c7" stroke="black" points="3211.93,-122 3208.93,-126 3187.93,-126 3184.93,-122 3148.07,-122 3148.07,-86 3211.93,-86 3211.93,-122"/>
<text text-anchor="middle" x="3180" y="-99.8" font-family="Times,serif" font-size="14.00">MatIcon</text>
</g>
<!-- MatIcon&#45;&gt;TrainingModule -->
<g id="edge37" class="edge">
<title>MatIcon&#45;&gt;TrainingModule</title>
<path fill="none" stroke="black" d="M3180,-122.05C3180,-136.37 3180,-154 3180,-154 3180,-154 3429.19,-154 3429.19,-154"/>
<polygon fill="black" stroke="black" points="3429.19,-157.5 3439.19,-154 3429.19,-150.5 3429.19,-157.5"/>
</g>
<!-- MatIconButton -->
<g id="node39" class="node">
<title>MatIconButton</title>
<polygon fill="#8dd3c7" stroke="black" points="3130.54,-122 3127.54,-126 3106.54,-126 3103.54,-122 3029.46,-122 3029.46,-86 3130.54,-86 3130.54,-122"/>
<text text-anchor="middle" x="3080" y="-99.8" font-family="Times,serif" font-size="14.00">MatIconButton</text>
</g>
<!-- MatIconButton&#45;&gt;TrainingModule -->
<g id="edge38" class="edge">
<title>MatIconButton&#45;&gt;TrainingModule</title>
<path fill="none" stroke="black" d="M3080,-122.19C3080,-137.18 3080,-156 3080,-156 3080,-156 3429.01,-156 3429.01,-156"/>
<polygon fill="black" stroke="black" points="3429.01,-159.5 3439.01,-156 3429.01,-152.5 3429.01,-159.5"/>
</g>
<!-- MatInput -->
<g id="node40" class="node">
<title>MatInput</title>
<polygon fill="#8dd3c7" stroke="black" points="3011.1,-122 3008.1,-126 2987.1,-126 2984.1,-122 2942.9,-122 2942.9,-86 3011.1,-86 3011.1,-122"/>
<text text-anchor="middle" x="2977" y="-99.8" font-family="Times,serif" font-size="14.00">MatInput</text>
</g>
<!-- MatInput&#45;&gt;TrainingModule -->
<g id="edge39" class="edge">
<title>MatInput&#45;&gt;TrainingModule</title>
<path fill="none" stroke="black" d="M2977,-122.24C2977,-137.57 2977,-157 2977,-157 2977,-157 3429.24,-157 3429.24,-157"/>
<polygon fill="black" stroke="black" points="3429.24,-160.5 3439.24,-157 3429.24,-153.5 3429.24,-160.5"/>
</g>
<!-- MatLabel -->
<g id="node41" class="node">
<title>MatLabel</title>
<polygon fill="#8dd3c7" stroke="black" points="2925.42,-122 2922.42,-126 2901.42,-126 2898.42,-122 2854.58,-122 2854.58,-86 2925.42,-86 2925.42,-122"/>
<text text-anchor="middle" x="2890" y="-99.8" font-family="Times,serif" font-size="14.00">MatLabel</text>
</g>
<!-- MatLabel&#45;&gt;TrainingModule -->
<g id="edge40" class="edge">
<title>MatLabel&#45;&gt;TrainingModule</title>
<path fill="none" stroke="black" d="M2890,-122.01C2890,-138.05 2890,-159 2890,-159 2890,-159 3429.22,-159 3429.22,-159"/>
<polygon fill="black" stroke="black" points="3429.22,-162.5 3439.22,-159 3429.22,-155.5 3429.22,-162.5"/>
</g>
<!-- MatOption -->
<g id="node42" class="node">
<title>MatOption</title>
<polygon fill="#8dd3c7" stroke="black" points="2836.94,-122 2833.94,-126 2812.94,-126 2809.94,-122 2759.06,-122 2759.06,-86 2836.94,-86 2836.94,-122"/>
<text text-anchor="middle" x="2798" y="-99.8" font-family="Times,serif" font-size="14.00">MatOption</text>
</g>
<!-- MatOption&#45;&gt;TrainingModule -->
<g id="edge41" class="edge">
<title>MatOption&#45;&gt;TrainingModule</title>
<path fill="none" stroke="black" d="M2798,-122.03C2798,-138.4 2798,-160 2798,-160 2798,-160 3429.04,-160 3429.04,-160"/>
<polygon fill="black" stroke="black" points="3429.04,-163.5 3439.04,-160 3429.04,-156.5 3429.04,-163.5"/>
</g>
<!-- MatPaginator -->
<g id="node43" class="node">
<title>MatPaginator</title>
<polygon fill="#8dd3c7" stroke="black" points="2741.2,-122 2738.2,-126 2717.2,-126 2714.2,-122 2648.8,-122 2648.8,-86 2741.2,-86 2741.2,-122"/>
<text text-anchor="middle" x="2695" y="-99.8" font-family="Times,serif" font-size="14.00">MatPaginator</text>
</g>
<!-- MatPaginator&#45;&gt;TrainingModule -->
<g id="edge42" class="edge">
<title>MatPaginator&#45;&gt;TrainingModule</title>
<path fill="none" stroke="black" d="M2695,-122.03C2695,-139.06 2695,-162 2695,-162 2695,-162 3429.09,-162 3429.09,-162"/>
<polygon fill="black" stroke="black" points="3429.09,-165.5 3439.09,-162 3429.09,-158.5 3429.09,-165.5"/>
</g>
<!-- MatRow -->
<g id="node44" class="node">
<title>MatRow</title>
<polygon fill="#8dd3c7" stroke="black" points="2630.49,-122 2627.49,-126 2606.49,-126 2603.49,-122 2565.51,-122 2565.51,-86 2630.49,-86 2630.49,-122"/>
<text text-anchor="middle" x="2598" y="-99.8" font-family="Times,serif" font-size="14.00">MatRow</text>
</g>
<!-- MatRow&#45;&gt;TrainingModule -->
<g id="edge43" class="edge">
<title>MatRow&#45;&gt;TrainingModule</title>
<path fill="none" stroke="black" d="M2598,-122.02C2598,-139.37 2598,-163 2598,-163 2598,-163 3429.03,-163 3429.03,-163"/>
<polygon fill="black" stroke="black" points="3429.03,-166.5 3439.03,-163 3429.03,-159.5 3429.03,-166.5"/>
</g>
<!-- MatRowDef -->
<g id="node45" class="node">
<title>MatRowDef</title>
<polygon fill="#8dd3c7" stroke="black" points="2547.97,-122 2544.97,-126 2523.97,-126 2520.97,-122 2462.03,-122 2462.03,-86 2547.97,-86 2547.97,-122"/>
<text text-anchor="middle" x="2505" y="-99.8" font-family="Times,serif" font-size="14.00">MatRowDef</text>
</g>
<!-- MatRowDef&#45;&gt;TrainingModule -->
<g id="edge44" class="edge">
<title>MatRowDef&#45;&gt;TrainingModule</title>
<path fill="none" stroke="black" d="M2505,-122C2505,-139.68 2505,-164 2505,-164 2505,-164 3429.18,-164 3429.18,-164"/>
<polygon fill="black" stroke="black" points="3429.18,-167.5 3439.18,-164 3429.18,-160.5 3429.18,-167.5"/>
</g>
<!-- MatSelect -->
<g id="node46" class="node">
<title>MatSelect</title>
<polygon fill="#8dd3c7" stroke="black" points="2444.26,-122 2441.26,-126 2420.26,-126 2417.26,-122 2371.74,-122 2371.74,-86 2444.26,-86 2444.26,-122"/>
<text text-anchor="middle" x="2408" y="-99.8" font-family="Times,serif" font-size="14.00">MatSelect</text>
</g>
<!-- MatSelect&#45;&gt;TrainingModule -->
<g id="edge45" class="edge">
<title>MatSelect&#45;&gt;TrainingModule</title>
<path fill="none" stroke="black" d="M2408,-122.27C2408,-140.56 2408,-166 2408,-166 2408,-166 3429.19,-166 3429.19,-166"/>
<polygon fill="black" stroke="black" points="3429.19,-169.5 3439.19,-166 3429.19,-162.5 3429.19,-169.5"/>
</g>
<!-- MatSlideToggle -->
<g id="node47" class="node">
<title>MatSlideToggle</title>
<polygon fill="#8dd3c7" stroke="black" points="2353.49,-122 2350.49,-126 2329.49,-126 2326.49,-122 2246.51,-122 2246.51,-86 2353.49,-86 2353.49,-122"/>
<text text-anchor="middle" x="2300" y="-99.8" font-family="Times,serif" font-size="14.00">MatSlideToggle</text>
</g>
<!-- MatSlideToggle&#45;&gt;TrainingModule -->
<g id="edge46" class="edge">
<title>MatSlideToggle&#45;&gt;TrainingModule</title>
<path fill="none" stroke="black" d="M2300,-122.22C2300,-140.83 2300,-167 2300,-167 2300,-167 3429.03,-167 3429.03,-167"/>
<polygon fill="black" stroke="black" points="3429.03,-170.5 3439.03,-167 3429.03,-163.5 3429.03,-170.5"/>
</g>
<!-- MatSuffix -->
<g id="node48" class="node">
<title>MatSuffix</title>
<polygon fill="#8dd3c7" stroke="black" points="2228.55,-122 2225.55,-126 2204.55,-126 2201.55,-122 2155.45,-122 2155.45,-86 2228.55,-86 2228.55,-122"/>
<text text-anchor="middle" x="2192" y="-99.8" font-family="Times,serif" font-size="14.00">MatSuffix</text>
</g>
<!-- MatSuffix&#45;&gt;TrainingModule -->
<g id="edge47" class="edge">
<title>MatSuffix&#45;&gt;TrainingModule</title>
<path fill="none" stroke="black" d="M2192,-122.11C2192,-141.34 2192,-169 2192,-169 2192,-169 3429.16,-169 3429.16,-169"/>
<polygon fill="black" stroke="black" points="3429.16,-172.5 3439.16,-169 3429.16,-165.5 3429.16,-172.5"/>
</g>
<!-- MatTable -->
<g id="node49" class="node">
<title>MatTable</title>
<polygon fill="#8dd3c7" stroke="black" points="2137.42,-122 2134.42,-126 2113.42,-126 2110.42,-122 2066.58,-122 2066.58,-86 2137.42,-86 2137.42,-122"/>
<text text-anchor="middle" x="2102" y="-99.8" font-family="Times,serif" font-size="14.00">MatTable</text>
</g>
<!-- MatTable&#45;&gt;TrainingModule -->
<g id="edge48" class="edge">
<title>MatTable&#45;&gt;TrainingModule</title>
<path fill="none" stroke="black" d="M2102,-122.03C2102,-141.58 2102,-170 2102,-170 2102,-170 3428.9,-170 3428.9,-170"/>
<polygon fill="black" stroke="black" points="3428.9,-173.5 3438.9,-170 3428.9,-166.5 3428.9,-173.5"/>
</g>
<!-- MatTooltip -->
<g id="node50" class="node">
<title>MatTooltip</title>
<polygon fill="#8dd3c7" stroke="black" points="2048.77,-122 2045.77,-126 2024.77,-126 2021.77,-122 1969.23,-122 1969.23,-86 2048.77,-86 2048.77,-122"/>
<text text-anchor="middle" x="2009" y="-99.8" font-family="Times,serif" font-size="14.00">MatTooltip</text>
</g>
<!-- MatTooltip&#45;&gt;TrainingModule -->
<g id="edge49" class="edge">
<title>MatTooltip&#45;&gt;TrainingModule</title>
<path fill="none" stroke="black" d="M2009,-122.22C2009,-142.37 2009,-172 2009,-172 2009,-172 3428.87,-172 3428.87,-172"/>
<polygon fill="black" stroke="black" points="3428.87,-175.5 3438.87,-172 3428.87,-168.5 3428.87,-175.5"/>
</g>
<!-- TrainingRoutingModule -->
<g id="node51" class="node">
<title>TrainingRoutingModule</title>
<polygon fill="#8dd3c7" stroke="black" points="1951.38,-122 1948.38,-126 1927.38,-126 1924.38,-122 1798.62,-122 1798.62,-86 1951.38,-86 1951.38,-122"/>
<text text-anchor="middle" x="1875" y="-99.8" font-family="Times,serif" font-size="14.00">TrainingRoutingModule</text>
</g>
<!-- TrainingRoutingModule&#45;&gt;TrainingModule -->
<g id="edge50" class="edge">
<title>TrainingRoutingModule&#45;&gt;TrainingModule</title>
<path fill="none" stroke="black" d="M1875,-122.13C1875,-142.57 1875,-173 1875,-173 1875,-173 3429.17,-173 3429.17,-173"/>
<polygon fill="black" stroke="black" points="3429.17,-176.5 3439.17,-173 3429.17,-169.5 3429.17,-176.5"/>
</g>
</g>
</svg>
