<?xml version="1.0" encoding="UTF-8" standalone="no"?>
<!DOCTYPE svg PUBLIC "-//W3C//DTD SVG 1.1//EN"
 "http://www.w3.org/Graphics/SVG/1.1/DTD/svg11.dtd">
<!-- Generated by graphviz version 2.47.0 (20210316.0004)
 -->
<!-- Title: dependencies Pages: 1 -->
<svg width="5399pt" height="211pt"
 viewBox="0.00 0.00 5399.00 211.00" xmlns="http://www.w3.org/2000/svg" xmlns:xlink="http://www.w3.org/1999/xlink">
<g id="graph0" class="graph" transform="scale(1 1) rotate(0) translate(4 207)">
<title>dependencies</title>
<polygon fill="white" stroke="transparent" points="-4,4 -4,-207 5395,-207 5395,4 -4,4"/>
<text text-anchor="start" x="2674.51" y="-42.4" font-family="Times-12" font-weight="bold" font-size="14.00">Legend</text>
<polygon fill="#ffffb3" stroke="transparent" points="2461.5,-10 2461.5,-30 2481.5,-30 2481.5,-10 2461.5,-10"/>
<text text-anchor="start" x="2485.13" y="-15.4" font-family="Times-12" font-size="14.00"> &#160;Declarations</text>
<polygon fill="#8dd3c7" stroke="transparent" points="2574.5,-10 2574.5,-30 2594.5,-30 2594.5,-10 2574.5,-10"/>
<text text-anchor="start" x="2598.23" y="-15.4" font-family="Times-12" font-size="14.00"> &#160;Module</text>
<polygon fill="#80b1d3" stroke="transparent" points="2660.5,-10 2660.5,-30 2680.5,-30 2680.5,-10 2660.5,-10"/>
<text text-anchor="start" x="2684.28" y="-15.4" font-family="Times-12" font-size="14.00"> &#160;Bootstrap</text>
<polygon fill="#fdb462" stroke="transparent" points="2757.5,-10 2757.5,-30 2777.5,-30 2777.5,-10 2757.5,-10"/>
<text text-anchor="start" x="2781.17" y="-15.4" font-family="Times-12" font-size="14.00"> &#160;Providers</text>
<polygon fill="#fb8072" stroke="transparent" points="2853.5,-10 2853.5,-30 2873.5,-30 2873.5,-10 2853.5,-10"/>
<text text-anchor="start" x="2877.23" y="-15.4" font-family="Times-12" font-size="14.00"> &#160;Exports</text>
<g id="clust1" class="cluster">
<title>cluster_VendorModule</title>
<polygon fill="none" stroke="black" stroke-dasharray="1,5" points="8,-70 8,-195 5383,-195 5383,-70 8,-70"/>
</g>
<g id="clust8" class="cluster">
<title>cluster_VendorModule_imports</title>
<polygon fill="none" stroke="black" points="918,-78 918,-130 5375,-130 5375,-78 918,-78"/>
</g>
<g id="clust2" class="cluster">
<title>cluster_VendorModule_declarations</title>
<polygon fill="none" stroke="black" points="16,-78 16,-130 910,-130 910,-78 16,-78"/>
</g>
<!-- AddVendorComponent -->
<g id="node1" class="node">
<title>AddVendorComponent</title>
<polygon fill="#ffffb3" stroke="black" points="901.92,-122 754.08,-122 754.08,-86 901.92,-86 901.92,-122"/>
<text text-anchor="middle" x="828" y="-99.8" font-family="Times,serif" font-size="14.00">AddVendorComponent</text>
</g>
<!-- VendorModule -->
<g id="node6" class="node">
<title>VendorModule</title>
<polygon fill="#8dd3c7" stroke="black" points="2964.53,-187 2961.53,-191 2940.53,-191 2937.53,-187 2863.47,-187 2863.47,-151 2964.53,-151 2964.53,-187"/>
<text text-anchor="middle" x="2914" y="-164.8" font-family="Times,serif" font-size="14.00">VendorModule</text>
</g>
<!-- AddVendorComponent&#45;&gt;VendorModule -->
<g id="edge1" class="edge">
<title>AddVendorComponent&#45;&gt;VendorModule</title>
<path fill="none" stroke="black" d="M828,-122.01C828,-144.49 828,-180 828,-180 828,-180 2853.21,-180 2853.21,-180"/>
<polygon fill="black" stroke="black" points="2853.21,-183.5 2863.21,-180 2853.21,-176.5 2853.21,-183.5"/>
</g>
<!-- AppVendorDialogContentComponent -->
<g id="node2" class="node">
<title>AppVendorDialogContentComponent</title>
<polygon fill="#ffffb3" stroke="black" points="735.86,-122 506.14,-122 506.14,-86 735.86,-86 735.86,-122"/>
<text text-anchor="middle" x="621" y="-99.8" font-family="Times,serif" font-size="14.00">AppVendorDialogContentComponent</text>
</g>
<!-- AppVendorDialogContentComponent&#45;&gt;VendorModule -->
<g id="edge2" class="edge">
<title>AppVendorDialogContentComponent&#45;&gt;VendorModule</title>
<path fill="none" stroke="black" d="M621,-122.09C621,-145.13 621,-182 621,-182 621,-182 2853.44,-182 2853.44,-182"/>
<polygon fill="black" stroke="black" points="2853.44,-185.5 2863.44,-182 2853.44,-178.5 2853.44,-185.5"/>
</g>
<!-- DetailVendorComponent -->
<g id="node3" class="node">
<title>DetailVendorComponent</title>
<polygon fill="#ffffb3" stroke="black" points="487.52,-122 330.48,-122 330.48,-86 487.52,-86 487.52,-122"/>
<text text-anchor="middle" x="409" y="-99.8" font-family="Times,serif" font-size="14.00">DetailVendorComponent</text>
</g>
<!-- DetailVendorComponent&#45;&gt;VendorModule -->
<g id="edge3" class="edge">
<title>DetailVendorComponent&#45;&gt;VendorModule</title>
<path fill="none" stroke="black" d="M409,-122.32C409,-145.66 409,-183 409,-183 409,-183 2853.4,-183 2853.4,-183"/>
<polygon fill="black" stroke="black" points="2853.4,-186.5 2863.4,-183 2853.4,-179.5 2853.4,-186.5"/>
</g>
<!-- EditVendorComponent -->
<g id="node4" class="node">
<title>EditVendorComponent</title>
<polygon fill="#ffffb3" stroke="black" points="312.15,-122 165.85,-122 165.85,-86 312.15,-86 312.15,-122"/>
<text text-anchor="middle" x="239" y="-99.8" font-family="Times,serif" font-size="14.00">EditVendorComponent</text>
</g>
<!-- EditVendorComponent&#45;&gt;VendorModule -->
<g id="edge4" class="edge">
<title>EditVendorComponent&#45;&gt;VendorModule</title>
<path fill="none" stroke="black" d="M239,-122.15C239,-145.76 239,-184 239,-184 239,-184 2853.25,-184 2853.25,-184"/>
<polygon fill="black" stroke="black" points="2853.25,-187.5 2863.25,-184 2853.25,-180.5 2853.25,-187.5"/>
</g>
<!-- VendorComponent -->
<g id="node5" class="node">
<title>VendorComponent</title>
<polygon fill="#ffffb3" stroke="black" points="147.81,-122 24.19,-122 24.19,-86 147.81,-86 147.81,-122"/>
<text text-anchor="middle" x="86" y="-99.8" font-family="Times,serif" font-size="14.00">VendorComponent</text>
</g>
<!-- VendorComponent&#45;&gt;VendorModule -->
<g id="edge5" class="edge">
<title>VendorComponent&#45;&gt;VendorModule</title>
<path fill="none" stroke="black" d="M86,-122.2C86,-146.36 86,-186 86,-186 86,-186 2853.41,-186 2853.41,-186"/>
<polygon fill="black" stroke="black" points="2853.41,-189.5 2863.41,-186 2853.41,-182.5 2853.41,-189.5"/>
</g>
<!-- MatButton -->
<g id="node7" class="node">
<title>MatButton</title>
<polygon fill="#8dd3c7" stroke="black" points="5367.17,-122 5364.17,-126 5343.17,-126 5340.17,-122 5290.83,-122 5290.83,-86 5367.17,-86 5367.17,-122"/>
<text text-anchor="middle" x="5329" y="-99.8" font-family="Times,serif" font-size="14.00">MatButton</text>
</g>
<!-- MatButton&#45;&gt;VendorModule -->
<g id="edge6" class="edge">
<title>MatButton&#45;&gt;VendorModule</title>
<path fill="none" stroke="black" d="M5329,-122.2C5329,-146.36 5329,-186 5329,-186 5329,-186 2974.72,-186 2974.72,-186"/>
<polygon fill="black" stroke="black" points="2974.72,-182.5 2964.72,-186 2974.72,-189.5 2974.72,-182.5"/>
</g>
<!-- MatCard -->
<g id="node8" class="node">
<title>MatCard</title>
<polygon fill="#8dd3c7" stroke="black" points="5272.76,-122 5269.76,-126 5248.76,-126 5245.76,-122 5207.24,-122 5207.24,-86 5272.76,-86 5272.76,-122"/>
<text text-anchor="middle" x="5240" y="-99.8" font-family="Times,serif" font-size="14.00">MatCard</text>
</g>
<!-- MatCard&#45;&gt;VendorModule -->
<g id="edge7" class="edge">
<title>MatCard&#45;&gt;VendorModule</title>
<path fill="none" stroke="black" d="M5240,-122.15C5240,-145.76 5240,-184 5240,-184 5240,-184 2974.74,-184 2974.74,-184"/>
<polygon fill="black" stroke="black" points="2974.75,-180.5 2964.74,-184 2974.74,-187.5 2974.75,-180.5"/>
</g>
<!-- MatCardContent -->
<g id="node9" class="node">
<title>MatCardContent</title>
<polygon fill="#8dd3c7" stroke="black" points="5189.09,-122 5186.09,-126 5165.09,-126 5162.09,-122 5078.91,-122 5078.91,-86 5189.09,-86 5189.09,-122"/>
<text text-anchor="middle" x="5134" y="-99.8" font-family="Times,serif" font-size="14.00">MatCardContent</text>
</g>
<!-- MatCardContent&#45;&gt;VendorModule -->
<g id="edge8" class="edge">
<title>MatCardContent&#45;&gt;VendorModule</title>
<path fill="none" stroke="black" d="M5134,-122.32C5134,-145.66 5134,-183 5134,-183 5134,-183 2974.54,-183 2974.54,-183"/>
<polygon fill="black" stroke="black" points="2974.54,-179.5 2964.54,-183 2974.54,-186.5 2974.54,-179.5"/>
</g>
<!-- MatCardHeader -->
<g id="node10" class="node">
<title>MatCardHeader</title>
<polygon fill="#8dd3c7" stroke="black" points="5061.17,-122 5058.17,-126 5037.17,-126 5034.17,-122 4954.83,-122 4954.83,-86 5061.17,-86 5061.17,-122"/>
<text text-anchor="middle" x="5008" y="-99.8" font-family="Times,serif" font-size="14.00">MatCardHeader</text>
</g>
<!-- MatCardHeader&#45;&gt;VendorModule -->
<g id="edge9" class="edge">
<title>MatCardHeader&#45;&gt;VendorModule</title>
<path fill="none" stroke="black" d="M5008,-122.09C5008,-145.13 5008,-182 5008,-182 5008,-182 2974.72,-182 2974.72,-182"/>
<polygon fill="black" stroke="black" points="2974.72,-178.5 2964.72,-182 2974.72,-185.5 2974.72,-178.5"/>
</g>
<!-- MatCardTitle -->
<g id="node11" class="node">
<title>MatCardTitle</title>
<polygon fill="#8dd3c7" stroke="black" points="4937.2,-122 4934.2,-126 4913.2,-126 4910.2,-122 4844.8,-122 4844.8,-86 4937.2,-86 4937.2,-122"/>
<text text-anchor="middle" x="4891" y="-99.8" font-family="Times,serif" font-size="14.00">MatCardTitle</text>
</g>
<!-- MatCardTitle&#45;&gt;VendorModule -->
<g id="edge10" class="edge">
<title>MatCardTitle&#45;&gt;VendorModule</title>
<path fill="none" stroke="black" d="M4891,-122.01C4891,-144.49 4891,-180 4891,-180 4891,-180 2974.86,-180 2974.86,-180"/>
<polygon fill="black" stroke="black" points="2974.86,-176.5 2964.86,-180 2974.86,-183.5 2974.86,-176.5"/>
</g>
<!-- MatCell -->
<g id="node12" class="node">
<title>MatCell</title>
<polygon fill="#8dd3c7" stroke="black" points="4826.88,-122 4823.88,-126 4802.88,-126 4799.88,-122 4765.12,-122 4765.12,-86 4826.88,-86 4826.88,-122"/>
<text text-anchor="middle" x="4796" y="-99.8" font-family="Times,serif" font-size="14.00">MatCell</text>
</g>
<!-- MatCell&#45;&gt;VendorModule -->
<g id="edge11" class="edge">
<title>MatCell&#45;&gt;VendorModule</title>
<path fill="none" stroke="black" d="M4796,-122.29C4796,-144.21 4796,-178 4796,-178 4796,-178 2974.83,-178 2974.83,-178"/>
<polygon fill="black" stroke="black" points="2974.83,-174.5 2964.83,-178 2974.83,-181.5 2974.83,-174.5"/>
</g>
<!-- MatCellDef -->
<g id="node13" class="node">
<title>MatCellDef</title>
<polygon fill="#8dd3c7" stroke="black" points="4747.36,-122 4744.36,-126 4723.36,-126 4720.36,-122 4664.64,-122 4664.64,-86 4747.36,-86 4747.36,-122"/>
<text text-anchor="middle" x="4706" y="-99.8" font-family="Times,serif" font-size="14.00">MatCellDef</text>
</g>
<!-- MatCellDef&#45;&gt;VendorModule -->
<g id="edge12" class="edge">
<title>MatCellDef&#45;&gt;VendorModule</title>
<path fill="none" stroke="black" d="M4706,-122.04C4706,-143.66 4706,-177 4706,-177 4706,-177 2974.74,-177 2974.74,-177"/>
<polygon fill="black" stroke="black" points="2974.74,-173.5 2964.74,-177 2974.74,-180.5 2974.74,-173.5"/>
</g>
<!-- MatCheckbox -->
<g id="node14" class="node">
<title>MatCheckbox</title>
<polygon fill="#8dd3c7" stroke="black" points="4646.82,-122 4643.82,-126 4622.82,-126 4619.82,-122 4551.18,-122 4551.18,-86 4646.82,-86 4646.82,-122"/>
<text text-anchor="middle" x="4599" y="-99.8" font-family="Times,serif" font-size="14.00">MatCheckbox</text>
</g>
<!-- MatCheckbox&#45;&gt;VendorModule -->
<g id="edge13" class="edge">
<title>MatCheckbox&#45;&gt;VendorModule</title>
<path fill="none" stroke="black" d="M4599,-122.28C4599,-143.32 4599,-175 4599,-175 4599,-175 2974.89,-175 2974.89,-175"/>
<polygon fill="black" stroke="black" points="2974.89,-171.5 2964.89,-175 2974.89,-178.5 2974.89,-171.5"/>
</g>
<!-- MatColumnDef -->
<g id="node15" class="node">
<title>MatColumnDef</title>
<polygon fill="#8dd3c7" stroke="black" points="4533.15,-122 4530.15,-126 4509.15,-126 4506.15,-122 4428.85,-122 4428.85,-86 4533.15,-86 4533.15,-122"/>
<text text-anchor="middle" x="4481" y="-99.8" font-family="Times,serif" font-size="14.00">MatColumnDef</text>
</g>
<!-- MatColumnDef&#45;&gt;VendorModule -->
<g id="edge14" class="edge">
<title>MatColumnDef&#45;&gt;VendorModule</title>
<path fill="none" stroke="black" d="M4481,-122.03C4481,-142.77 4481,-174 4481,-174 4481,-174 2974.8,-174 2974.8,-174"/>
<polygon fill="black" stroke="black" points="2974.8,-170.5 2964.8,-174 2974.8,-177.5 2974.8,-170.5"/>
</g>
<!-- MatDatepicker -->
<g id="node16" class="node">
<title>MatDatepicker</title>
<polygon fill="#8dd3c7" stroke="black" points="4410.96,-122 4407.96,-126 4386.96,-126 4383.96,-122 4311.04,-122 4311.04,-86 4410.96,-86 4410.96,-122"/>
<text text-anchor="middle" x="4361" y="-99.8" font-family="Times,serif" font-size="14.00">MatDatepicker</text>
</g>
<!-- MatDatepicker&#45;&gt;VendorModule -->
<g id="edge15" class="edge">
<title>MatDatepicker&#45;&gt;VendorModule</title>
<path fill="none" stroke="black" d="M4377.66,-122.22C4377.66,-142.37 4377.66,-172 4377.66,-172 4377.66,-172 2974.81,-172 2974.81,-172"/>
<polygon fill="black" stroke="black" points="2974.81,-168.5 2964.81,-172 2974.81,-175.5 2974.81,-168.5"/>
</g>
<!-- MatDatepicker&#45;&gt;VendorModule -->
<g id="edge16" class="edge">
<title>MatDatepicker&#45;&gt;VendorModule</title>
<path fill="none" stroke="black" d="M4344.34,-122.31C4344.34,-142.15 4344.34,-171 4344.34,-171 4344.34,-171 2974.91,-171 2974.91,-171"/>
<polygon fill="black" stroke="black" points="2974.91,-167.5 2964.91,-171 2974.91,-174.5 2974.91,-167.5"/>
</g>
<!-- MatDatepickerInput -->
<g id="node17" class="node">
<title>MatDatepickerInput</title>
<polygon fill="#8dd3c7" stroke="black" points="4292.51,-122 4289.51,-126 4268.51,-126 4265.51,-122 4163.49,-122 4163.49,-86 4292.51,-86 4292.51,-122"/>
<text text-anchor="middle" x="4228" y="-99.8" font-family="Times,serif" font-size="14.00">MatDatepickerInput</text>
</g>
<!-- MatDatepickerInput&#45;&gt;VendorModule -->
<g id="edge17" class="edge">
<title>MatDatepickerInput&#45;&gt;VendorModule</title>
<path fill="none" stroke="black" d="M4206.42,-122.17C4206.42,-141.09 4206.42,-168 4206.42,-168 4206.42,-168 2974.66,-168 2974.66,-168"/>
<polygon fill="black" stroke="black" points="2974.66,-164.5 2964.66,-168 2974.66,-171.5 2974.66,-164.5"/>
</g>
<!-- MatDatepickerInput&#45;&gt;VendorModule -->
<g id="edge18" class="edge">
<title>MatDatepickerInput&#45;&gt;VendorModule</title>
<path fill="none" stroke="black" d="M4249.58,-122.11C4249.58,-141.34 4249.58,-169 4249.58,-169 4249.58,-169 2974.73,-169 2974.73,-169"/>
<polygon fill="black" stroke="black" points="2974.73,-165.5 2964.73,-169 2974.73,-172.5 2974.73,-165.5"/>
</g>
<!-- MatDatepickerToggle -->
<g id="node18" class="node">
<title>MatDatepickerToggle</title>
<polygon fill="#8dd3c7" stroke="black" points="4144.61,-122 4141.61,-126 4120.61,-126 4117.61,-122 4005.39,-122 4005.39,-86 4144.61,-86 4144.61,-122"/>
<text text-anchor="middle" x="4075" y="-99.8" font-family="Times,serif" font-size="14.00">MatDatepickerToggle</text>
</g>
<!-- MatDatepickerToggle&#45;&gt;VendorModule -->
<g id="edge19" class="edge">
<title>MatDatepickerToggle&#45;&gt;VendorModule</title>
<path fill="none" stroke="black" d="M4098.27,-122.22C4098.27,-140.83 4098.27,-167 4098.27,-167 4098.27,-167 2974.89,-167 2974.89,-167"/>
<polygon fill="black" stroke="black" points="2974.89,-163.5 2964.89,-167 2974.89,-170.5 2974.89,-163.5"/>
</g>
<!-- MatDatepickerToggle&#45;&gt;VendorModule -->
<g id="edge20" class="edge">
<title>MatDatepickerToggle&#45;&gt;VendorModule</title>
<path fill="none" stroke="black" d="M4051.73,-122.3C4051.73,-140.27 4051.73,-165 4051.73,-165 4051.73,-165 2974.72,-165 2974.72,-165"/>
<polygon fill="black" stroke="black" points="2974.72,-161.5 2964.72,-165 2974.72,-168.5 2974.72,-161.5"/>
</g>
<!-- MatDialogActions -->
<g id="node19" class="node">
<title>MatDialogActions</title>
<polygon fill="#8dd3c7" stroke="black" points="3987.2,-122 3984.2,-126 3963.2,-126 3960.2,-122 3866.8,-122 3866.8,-86 3987.2,-86 3987.2,-122"/>
<text text-anchor="middle" x="3927" y="-99.8" font-family="Times,serif" font-size="14.00">MatDialogActions</text>
</g>
<!-- MatDialogActions&#45;&gt;VendorModule -->
<g id="edge21" class="edge">
<title>MatDialogActions&#45;&gt;VendorModule</title>
<path fill="none" stroke="black" d="M3927,-122.02C3927,-139.37 3927,-163 3927,-163 3927,-163 2974.58,-163 2974.58,-163"/>
<polygon fill="black" stroke="black" points="2974.58,-159.5 2964.58,-163 2974.58,-166.5 2974.58,-159.5"/>
</g>
<!-- MatDialogTitle -->
<g id="node20" class="node">
<title>MatDialogTitle</title>
<polygon fill="#8dd3c7" stroke="black" points="3848.59,-122 3845.59,-126 3824.59,-126 3821.59,-122 3745.41,-122 3745.41,-86 3848.59,-86 3848.59,-122"/>
<text text-anchor="middle" x="3797" y="-99.8" font-family="Times,serif" font-size="14.00">MatDialogTitle</text>
</g>
<!-- MatDialogTitle&#45;&gt;VendorModule -->
<g id="edge22" class="edge">
<title>MatDialogTitle&#45;&gt;VendorModule</title>
<path fill="none" stroke="black" d="M3797,-122.03C3797,-139.06 3797,-162 3797,-162 3797,-162 2974.65,-162 2974.65,-162"/>
<polygon fill="black" stroke="black" points="2974.65,-158.5 2964.65,-162 2974.65,-165.5 2974.65,-158.5"/>
</g>
<!-- MatError -->
<g id="node21" class="node">
<title>MatError</title>
<polygon fill="#8dd3c7" stroke="black" points="3727.08,-122 3724.08,-126 3703.08,-126 3700.08,-122 3658.92,-122 3658.92,-86 3727.08,-86 3727.08,-122"/>
<text text-anchor="middle" x="3693" y="-99.8" font-family="Times,serif" font-size="14.00">MatError</text>
</g>
<!-- MatError&#45;&gt;VendorModule -->
<g id="edge23" class="edge">
<title>MatError&#45;&gt;VendorModule</title>
<path fill="none" stroke="black" d="M3693,-122.03C3693,-138.4 3693,-160 3693,-160 3693,-160 2974.81,-160 2974.81,-160"/>
<polygon fill="black" stroke="black" points="2974.81,-156.5 2964.81,-160 2974.81,-163.5 2974.81,-156.5"/>
</g>
<!-- MatFormField -->
<g id="node22" class="node">
<title>MatFormField</title>
<polygon fill="#8dd3c7" stroke="black" points="3640.66,-122 3637.66,-126 3616.66,-126 3613.66,-122 3543.34,-122 3543.34,-86 3640.66,-86 3640.66,-122"/>
<text text-anchor="middle" x="3592" y="-99.8" font-family="Times,serif" font-size="14.00">MatFormField</text>
</g>
<!-- MatFormField&#45;&gt;VendorModule -->
<g id="edge24" class="edge">
<title>MatFormField&#45;&gt;VendorModule</title>
<path fill="none" stroke="black" d="M3592,-122.01C3592,-138.05 3592,-159 3592,-159 3592,-159 2974.68,-159 2974.68,-159"/>
<polygon fill="black" stroke="black" points="2974.68,-155.5 2964.68,-159 2974.68,-162.5 2974.68,-155.5"/>
</g>
<!-- MatHeaderCell -->
<g id="node23" class="node">
<title>MatHeaderCell</title>
<polygon fill="#8dd3c7" stroke="black" points="3525.29,-122 3522.29,-126 3501.29,-126 3498.29,-122 3422.71,-122 3422.71,-86 3525.29,-86 3525.29,-122"/>
<text text-anchor="middle" x="3474" y="-99.8" font-family="Times,serif" font-size="14.00">MatHeaderCell</text>
</g>
<!-- MatHeaderCell&#45;&gt;VendorModule -->
<g id="edge25" class="edge">
<title>MatHeaderCell&#45;&gt;VendorModule</title>
<path fill="none" stroke="black" d="M3474,-122.24C3474,-137.57 3474,-157 3474,-157 3474,-157 2974.68,-157 2974.68,-157"/>
<polygon fill="black" stroke="black" points="2974.68,-153.5 2964.68,-157 2974.68,-160.5 2974.68,-153.5"/>
</g>
<!-- MatHeaderCellDef -->
<g id="node24" class="node">
<title>MatHeaderCellDef</title>
<polygon fill="#8dd3c7" stroke="black" points="3404.78,-122 3401.78,-126 3380.78,-126 3377.78,-122 3281.22,-122 3281.22,-86 3404.78,-86 3404.78,-122"/>
<text text-anchor="middle" x="3343" y="-99.8" font-family="Times,serif" font-size="14.00">MatHeaderCellDef</text>
</g>
<!-- MatHeaderCellDef&#45;&gt;VendorModule -->
<g id="edge26" class="edge">
<title>MatHeaderCellDef&#45;&gt;VendorModule</title>
<path fill="none" stroke="black" d="M3343,-122.19C3343,-137.18 3343,-156 3343,-156 3343,-156 2974.9,-156 2974.9,-156"/>
<polygon fill="black" stroke="black" points="2974.9,-152.5 2964.9,-156 2974.9,-159.5 2974.9,-152.5"/>
</g>
<!-- MatHeaderRow -->
<g id="node25" class="node">
<title>MatHeaderRow</title>
<polygon fill="#8dd3c7" stroke="black" points="3263.9,-122 3260.9,-126 3239.9,-126 3236.9,-122 3158.1,-122 3158.1,-86 3263.9,-86 3263.9,-122"/>
<text text-anchor="middle" x="3211" y="-99.8" font-family="Times,serif" font-size="14.00">MatHeaderRow</text>
</g>
<!-- MatHeaderRow&#45;&gt;VendorModule -->
<g id="edge27" class="edge">
<title>MatHeaderRow&#45;&gt;VendorModule</title>
<path fill="none" stroke="black" d="M3211,-122.05C3211,-136.37 3211,-154 3211,-154 3211,-154 2974.72,-154 2974.72,-154"/>
<polygon fill="black" stroke="black" points="2974.72,-150.5 2964.72,-154 2974.72,-157.5 2974.72,-150.5"/>
</g>
<!-- MatHeaderRowDef -->
<g id="node26" class="node">
<title>MatHeaderRowDef</title>
<polygon fill="#8dd3c7" stroke="black" points="3140.39,-122 3137.39,-126 3116.39,-126 3113.39,-122 3013.61,-122 3013.61,-86 3140.39,-86 3140.39,-122"/>
<text text-anchor="middle" x="3077" y="-99.8" font-family="Times,serif" font-size="14.00">MatHeaderRowDef</text>
</g>
<!-- MatHeaderRowDef&#45;&gt;VendorModule -->
<g id="edge28" class="edge">
<title>MatHeaderRowDef&#45;&gt;VendorModule</title>
<path fill="none" stroke="black" d="M3077,-122.25C3077,-136.18 3077,-153 3077,-153 3077,-153 2974.68,-153 2974.68,-153"/>
<polygon fill="black" stroke="black" points="2974.68,-149.5 2964.68,-153 2974.68,-156.5 2974.68,-149.5"/>
</g>
<!-- MatIcon -->
<g id="node27" class="node">
<title>MatIcon</title>
<polygon fill="#8dd3c7" stroke="black" points="2995.93,-122 2992.93,-126 2971.93,-126 2968.93,-122 2932.07,-122 2932.07,-86 2995.93,-86 2995.93,-122"/>
<text text-anchor="middle" x="2964" y="-99.8" font-family="Times,serif" font-size="14.00">MatIcon</text>
</g>
<!-- MatIcon&#45;&gt;VendorModule -->
<g id="edge29" class="edge">
<title>MatIcon&#45;&gt;VendorModule</title>
<path fill="none" stroke="black" d="M2948.53,-122.11C2948.53,-122.11 2948.53,-140.99 2948.53,-140.99"/>
<polygon fill="black" stroke="black" points="2945.03,-140.99 2948.53,-150.99 2952.03,-140.99 2945.03,-140.99"/>
</g>
<!-- MatIconButton -->
<g id="node28" class="node">
<title>MatIconButton</title>
<polygon fill="#8dd3c7" stroke="black" points="2914.54,-122 2911.54,-126 2890.54,-126 2887.54,-122 2813.46,-122 2813.46,-86 2914.54,-86 2914.54,-122"/>
<text text-anchor="middle" x="2864" y="-99.8" font-family="Times,serif" font-size="14.00">MatIconButton</text>
</g>
<!-- MatIconButton&#45;&gt;VendorModule -->
<g id="edge30" class="edge">
<title>MatIconButton&#45;&gt;VendorModule</title>
<path fill="none" stroke="black" d="M2889,-122.11C2889,-122.11 2889,-140.99 2889,-140.99"/>
<polygon fill="black" stroke="black" points="2885.5,-140.99 2889,-150.99 2892.5,-140.99 2885.5,-140.99"/>
</g>
<!-- MatInput -->
<g id="node29" class="node">
<title>MatInput</title>
<polygon fill="#8dd3c7" stroke="black" points="2795.1,-122 2792.1,-126 2771.1,-126 2768.1,-122 2726.9,-122 2726.9,-86 2795.1,-86 2795.1,-122"/>
<text text-anchor="middle" x="2761" y="-99.8" font-family="Times,serif" font-size="14.00">MatInput</text>
</g>
<!-- MatInput&#45;&gt;VendorModule -->
<g id="edge31" class="edge">
<title>MatInput&#45;&gt;VendorModule</title>
<path fill="none" stroke="black" d="M2761,-122.25C2761,-136.18 2761,-153 2761,-153 2761,-153 2853.05,-153 2853.05,-153"/>
<polygon fill="black" stroke="black" points="2853.05,-156.5 2863.05,-153 2853.05,-149.5 2853.05,-156.5"/>
</g>
<!-- MatLabel -->
<g id="node30" class="node">
<title>MatLabel</title>
<polygon fill="#8dd3c7" stroke="black" points="2709.42,-122 2706.42,-126 2685.42,-126 2682.42,-122 2638.58,-122 2638.58,-86 2709.42,-86 2709.42,-122"/>
<text text-anchor="middle" x="2674" y="-99.8" font-family="Times,serif" font-size="14.00">MatLabel</text>
</g>
<!-- MatLabel&#45;&gt;VendorModule -->
<g id="edge32" class="edge">
<title>MatLabel&#45;&gt;VendorModule</title>
<path fill="none" stroke="black" d="M2674,-122.05C2674,-136.37 2674,-154 2674,-154 2674,-154 2853.4,-154 2853.4,-154"/>
<polygon fill="black" stroke="black" points="2853.4,-157.5 2863.4,-154 2853.4,-150.5 2853.4,-157.5"/>
</g>
<!-- MatOption -->
<g id="node31" class="node">
<title>MatOption</title>
<polygon fill="#8dd3c7" stroke="black" points="2620.94,-122 2617.94,-126 2596.94,-126 2593.94,-122 2543.06,-122 2543.06,-86 2620.94,-86 2620.94,-122"/>
<text text-anchor="middle" x="2582" y="-99.8" font-family="Times,serif" font-size="14.00">MatOption</text>
</g>
<!-- MatOption&#45;&gt;VendorModule -->
<g id="edge33" class="edge">
<title>MatOption&#45;&gt;VendorModule</title>
<path fill="none" stroke="black" d="M2582,-122.19C2582,-137.18 2582,-156 2582,-156 2582,-156 2853.21,-156 2853.21,-156"/>
<polygon fill="black" stroke="black" points="2853.21,-159.5 2863.21,-156 2853.21,-152.5 2853.21,-159.5"/>
</g>
<!-- MatPaginator -->
<g id="node32" class="node">
<title>MatPaginator</title>
<polygon fill="#8dd3c7" stroke="black" points="2525.2,-122 2522.2,-126 2501.2,-126 2498.2,-122 2432.8,-122 2432.8,-86 2525.2,-86 2525.2,-122"/>
<text text-anchor="middle" x="2479" y="-99.8" font-family="Times,serif" font-size="14.00">MatPaginator</text>
</g>
<!-- MatPaginator&#45;&gt;VendorModule -->
<g id="edge34" class="edge">
<title>MatPaginator&#45;&gt;VendorModule</title>
<path fill="none" stroke="black" d="M2479,-122.24C2479,-137.57 2479,-157 2479,-157 2479,-157 2853.25,-157 2853.25,-157"/>
<polygon fill="black" stroke="black" points="2853.25,-160.5 2863.25,-157 2853.25,-153.5 2853.25,-160.5"/>
</g>
<!-- MatRow -->
<g id="node33" class="node">
<title>MatRow</title>
<polygon fill="#8dd3c7" stroke="black" points="2414.49,-122 2411.49,-126 2390.49,-126 2387.49,-122 2349.51,-122 2349.51,-86 2414.49,-86 2414.49,-122"/>
<text text-anchor="middle" x="2382" y="-99.8" font-family="Times,serif" font-size="14.00">MatRow</text>
</g>
<!-- MatRow&#45;&gt;VendorModule -->
<g id="edge35" class="edge">
<title>MatRow&#45;&gt;VendorModule</title>
<path fill="none" stroke="black" d="M2382,-122.01C2382,-138.05 2382,-159 2382,-159 2382,-159 2852.99,-159 2852.99,-159"/>
<polygon fill="black" stroke="black" points="2852.99,-162.5 2862.99,-159 2852.99,-155.5 2852.99,-162.5"/>
</g>
<!-- MatRowDef -->
<g id="node34" class="node">
<title>MatRowDef</title>
<polygon fill="#8dd3c7" stroke="black" points="2331.97,-122 2328.97,-126 2307.97,-126 2304.97,-122 2246.03,-122 2246.03,-86 2331.97,-86 2331.97,-122"/>
<text text-anchor="middle" x="2289" y="-99.8" font-family="Times,serif" font-size="14.00">MatRowDef</text>
</g>
<!-- MatRowDef&#45;&gt;VendorModule -->
<g id="edge36" class="edge">
<title>MatRowDef&#45;&gt;VendorModule</title>
<path fill="none" stroke="black" d="M2289,-122.03C2289,-138.4 2289,-160 2289,-160 2289,-160 2853.38,-160 2853.38,-160"/>
<polygon fill="black" stroke="black" points="2853.38,-163.5 2863.38,-160 2853.38,-156.5 2853.38,-163.5"/>
</g>
<!-- MatSelect -->
<g id="node35" class="node">
<title>MatSelect</title>
<polygon fill="#8dd3c7" stroke="black" points="2228.26,-122 2225.26,-126 2204.26,-126 2201.26,-122 2155.74,-122 2155.74,-86 2228.26,-86 2228.26,-122"/>
<text text-anchor="middle" x="2192" y="-99.8" font-family="Times,serif" font-size="14.00">MatSelect</text>
</g>
<!-- MatSelect&#45;&gt;VendorModule -->
<g id="edge37" class="edge">
<title>MatSelect&#45;&gt;VendorModule</title>
<path fill="none" stroke="black" d="M2192,-122.03C2192,-139.06 2192,-162 2192,-162 2192,-162 2853.23,-162 2853.23,-162"/>
<polygon fill="black" stroke="black" points="2853.23,-165.5 2863.23,-162 2853.23,-158.5 2853.23,-165.5"/>
</g>
<!-- MatStep -->
<g id="node36" class="node">
<title>MatStep</title>
<polygon fill="#8dd3c7" stroke="black" points="2137.94,-122 2134.94,-126 2113.94,-126 2110.94,-122 2074.06,-122 2074.06,-86 2137.94,-86 2137.94,-122"/>
<text text-anchor="middle" x="2106" y="-99.8" font-family="Times,serif" font-size="14.00">MatStep</text>
</g>
<!-- MatStep&#45;&gt;VendorModule -->
<g id="edge38" class="edge">
<title>MatStep&#45;&gt;VendorModule</title>
<path fill="none" stroke="black" d="M2106,-122.02C2106,-139.37 2106,-163 2106,-163 2106,-163 2853.46,-163 2853.46,-163"/>
<polygon fill="black" stroke="black" points="2853.46,-166.5 2863.46,-163 2853.46,-159.5 2853.46,-166.5"/>
</g>
<!-- MatStepLabel -->
<g id="node37" class="node">
<title>MatStepLabel</title>
<polygon fill="#8dd3c7" stroke="black" points="2056.81,-122 2053.81,-126 2032.81,-126 2029.81,-122 1961.19,-122 1961.19,-86 2056.81,-86 2056.81,-122"/>
<text text-anchor="middle" x="2009" y="-99.8" font-family="Times,serif" font-size="14.00">MatStepLabel</text>
</g>
<!-- MatStepLabel&#45;&gt;VendorModule -->
<g id="edge39" class="edge">
<title>MatStepLabel&#45;&gt;VendorModule</title>
<path fill="none" stroke="black" d="M2009,-122.3C2009,-140.27 2009,-165 2009,-165 2009,-165 2853.4,-165 2853.4,-165"/>
<polygon fill="black" stroke="black" points="2853.4,-168.5 2863.4,-165 2853.4,-161.5 2853.4,-168.5"/>
</g>
<!-- MatStepper -->
<g id="node38" class="node">
<title>MatStepper</title>
<polygon fill="#8dd3c7" stroke="black" points="1943.81,-122 1940.81,-126 1919.81,-126 1916.81,-122 1862.19,-122 1862.19,-86 1943.81,-86 1943.81,-122"/>
<text text-anchor="middle" x="1903" y="-99.8" font-family="Times,serif" font-size="14.00">MatStepper</text>
</g>
<!-- MatStepper&#45;&gt;VendorModule -->
<g id="edge40" class="edge">
<title>MatStepper&#45;&gt;VendorModule</title>
<path fill="none" stroke="black" d="M1903,-122.22C1903,-140.83 1903,-167 1903,-167 1903,-167 2853.17,-167 2853.17,-167"/>
<polygon fill="black" stroke="black" points="2853.17,-170.5 2863.17,-167 2853.17,-163.5 2853.17,-170.5"/>
</g>
<!-- MatStepperNext -->
<g id="node39" class="node">
<title>MatStepperNext</title>
<polygon fill="#8dd3c7" stroke="black" points="1844.03,-122 1841.03,-126 1820.03,-126 1817.03,-122 1735.97,-122 1735.97,-86 1844.03,-86 1844.03,-122"/>
<text text-anchor="middle" x="1790" y="-99.8" font-family="Times,serif" font-size="14.00">MatStepperNext</text>
</g>
<!-- MatStepperNext&#45;&gt;VendorModule -->
<g id="edge41" class="edge">
<title>MatStepperNext&#45;&gt;VendorModule</title>
<path fill="none" stroke="black" d="M1790,-122.17C1790,-141.09 1790,-168 1790,-168 1790,-168 2853.15,-168 2853.15,-168"/>
<polygon fill="black" stroke="black" points="2853.15,-171.5 2863.15,-168 2853.15,-164.5 2853.15,-171.5"/>
</g>
<!-- MatStepperPrevious -->
<g id="node40" class="node">
<title>MatStepperPrevious</title>
<polygon fill="#8dd3c7" stroke="black" points="1718.31,-122 1715.31,-126 1694.31,-126 1691.31,-122 1587.69,-122 1587.69,-86 1718.31,-86 1718.31,-122"/>
<text text-anchor="middle" x="1653" y="-99.8" font-family="Times,serif" font-size="14.00">MatStepperPrevious</text>
</g>
<!-- MatStepperPrevious&#45;&gt;VendorModule -->
<g id="edge42" class="edge">
<title>MatStepperPrevious&#45;&gt;VendorModule</title>
<path fill="none" stroke="black" d="M1653,-122.11C1653,-141.34 1653,-169 1653,-169 1653,-169 2853.4,-169 2853.4,-169"/>
<polygon fill="black" stroke="black" points="2853.4,-172.5 2863.4,-169 2853.4,-165.5 2853.4,-172.5"/>
</g>
<!-- MatSuffix -->
<g id="node41" class="node">
<title>MatSuffix</title>
<polygon fill="#8dd3c7" stroke="black" points="1569.55,-122 1566.55,-126 1545.55,-126 1542.55,-122 1496.45,-122 1496.45,-86 1569.55,-86 1569.55,-122"/>
<text text-anchor="middle" x="1533" y="-99.8" font-family="Times,serif" font-size="14.00">MatSuffix</text>
</g>
<!-- MatSuffix&#45;&gt;VendorModule -->
<g id="edge43" class="edge">
<title>MatSuffix&#45;&gt;VendorModule</title>
<path fill="none" stroke="black" d="M1533,-122.31C1533,-142.15 1533,-171 1533,-171 1533,-171 2853.21,-171 2853.21,-171"/>
<polygon fill="black" stroke="black" points="2853.21,-174.5 2863.21,-171 2853.21,-167.5 2853.21,-174.5"/>
</g>
<!-- MatTab -->
<g id="node42" class="node">
<title>MatTab</title>
<polygon fill="#8dd3c7" stroke="black" points="1478.32,-122 1475.32,-126 1454.32,-126 1451.32,-122 1417.68,-122 1417.68,-86 1478.32,-86 1478.32,-122"/>
<text text-anchor="middle" x="1448" y="-99.8" font-family="Times,serif" font-size="14.00">MatTab</text>
</g>
<!-- MatTab&#45;&gt;VendorModule -->
<g id="edge44" class="edge">
<title>MatTab&#45;&gt;VendorModule</title>
<path fill="none" stroke="black" d="M1448,-122.22C1448,-142.37 1448,-172 1448,-172 1448,-172 2853.11,-172 2853.11,-172"/>
<polygon fill="black" stroke="black" points="2853.11,-175.5 2863.11,-172 2853.11,-168.5 2853.11,-175.5"/>
</g>
<!-- MatTabGroup -->
<g id="node43" class="node">
<title>MatTabGroup</title>
<polygon fill="#8dd3c7" stroke="black" points="1400.08,-122 1397.08,-126 1376.08,-126 1373.08,-122 1303.92,-122 1303.92,-86 1400.08,-86 1400.08,-122"/>
<text text-anchor="middle" x="1352" y="-99.8" font-family="Times,serif" font-size="14.00">MatTabGroup</text>
</g>
<!-- MatTabGroup&#45;&gt;VendorModule -->
<g id="edge45" class="edge">
<title>MatTabGroup&#45;&gt;VendorModule</title>
<path fill="none" stroke="black" d="M1352,-122.03C1352,-142.77 1352,-174 1352,-174 1352,-174 2853.36,-174 2853.36,-174"/>
<polygon fill="black" stroke="black" points="2853.36,-177.5 2863.36,-174 2853.36,-170.5 2853.36,-177.5"/>
</g>
<!-- MatTable -->
<g id="node44" class="node">
<title>MatTable</title>
<polygon fill="#8dd3c7" stroke="black" points="1286.42,-122 1283.42,-126 1262.42,-126 1259.42,-122 1215.58,-122 1215.58,-86 1286.42,-86 1286.42,-122"/>
<text text-anchor="middle" x="1251" y="-99.8" font-family="Times,serif" font-size="14.00">MatTable</text>
</g>
<!-- MatTable&#45;&gt;VendorModule -->
<g id="edge46" class="edge">
<title>MatTable&#45;&gt;VendorModule</title>
<path fill="none" stroke="black" d="M1251,-122.28C1251,-143.32 1251,-175 1251,-175 1251,-175 2853.32,-175 2853.32,-175"/>
<polygon fill="black" stroke="black" points="2853.32,-178.5 2863.32,-175 2853.32,-171.5 2853.32,-178.5"/>
</g>
<!-- MaterialModule -->
<g id="node45" class="node">
<title>MaterialModule</title>
<polygon fill="#8dd3c7" stroke="black" points="1197.47,-122 1194.47,-126 1173.47,-126 1170.47,-122 1090.53,-122 1090.53,-86 1197.47,-86 1197.47,-122"/>
<text text-anchor="middle" x="1144" y="-99.8" font-family="Times,serif" font-size="14.00">MaterialModule</text>
</g>
<!-- MaterialModule&#45;&gt;VendorModule -->
<g id="edge47" class="edge">
<title>MaterialModule&#45;&gt;VendorModule</title>
<path fill="none" stroke="black" d="M1144,-122.04C1144,-143.66 1144,-177 1144,-177 1144,-177 2853.41,-177 2853.41,-177"/>
<polygon fill="black" stroke="black" points="2853.41,-180.5 2863.41,-177 2853.41,-173.5 2853.41,-180.5"/>
</g>
<!-- VendorRoutingModule -->
<g id="node46" class="node">
<title>VendorRoutingModule</title>
<polygon fill="#8dd3c7" stroke="black" points="1072.15,-122 1069.15,-126 1048.15,-126 1045.15,-122 925.85,-122 925.85,-86 1072.15,-86 1072.15,-122"/>
<text text-anchor="middle" x="999" y="-99.8" font-family="Times,serif" font-size="14.00">VendorRoutingModule</text>
</g>
<!-- VendorRoutingModule&#45;&gt;VendorModule -->
<g id="edge48" class="edge">
<title>VendorRoutingModule&#45;&gt;VendorModule</title>
<path fill="none" stroke="black" d="M999,-122.29C999,-144.21 999,-178 999,-178 999,-178 2853.27,-178 2853.27,-178"/>
<polygon fill="black" stroke="black" points="2853.27,-181.5 2863.27,-178 2853.27,-174.5 2853.27,-181.5"/>
</g>
</g>
</svg>
