<?xml version="1.0" encoding="UTF-8" standalone="no"?>
<!DOCTYPE svg PUBLIC "-//W3C//DTD SVG 20010904//EN"
              "http://www.w3.org/TR/2001/REC-SVG-20010904/DTD/svg10.dtd">

<svg xmlns="http://www.w3.org/2000/svg"
     width="3.33333in" height="1.52778in"
     viewBox="0 0 240 110">
  <path id="Selection"
        fill="none" stroke="black" stroke-width="1"
        d="M 180.00,61.00
           C 163.91,53.32 163.36,26.64 173.39,14.00
             180.85,4.59 187.78,2.99 199.00,3.00
             205.38,3.01 209.15,2.73 215.00,5.80
             222.01,9.48 229.24,16.96 230.83,25.00
             230.83,25.00 230.83,38.00 230.83,38.00
             230.93,45.45 229.82,50.13 224.79,56.00
             215.10,67.29 204.89,68.86 191.00,67.09
             184.07,66.21 184.27,67.42 178.00,63.00
             178.00,63.00 180.00,61.00 180.00,61.00 Z
           M 213.00,11.00
           C 205.44,11.78 188.55,18.85 184.15,25.10
             178.45,33.19 190.10,35.34 196.00,33.00
             196.00,33.00 189.00,30.00 189.00,30.00
             194.92,17.02 205.02,17.18 213.00,11.00 Z
           M 187.00,55.00
           C 193.71,53.96 207.54,48.15 212.38,43.56
             221.35,35.04 211.82,32.19 204.00,33.00
             205.26,34.07 207.24,35.53 207.77,37.13
             208.76,40.16 206.01,42.75 203.96,44.53
             197.32,50.30 191.85,51.25 187.00,55.00 Z
           M 203.00,33.00
           C 203.00,33.00 202.00,33.00 202.00,33.00
             202.00,33.00 203.00,34.00 203.00,34.00
             203.00,34.00 203.00,33.00 203.00,33.00 Z
           M 21.00,59.00
           C 19.31,58.94 16.22,59.11 15.17,57.46
             14.14,55.84 15.77,54.72 17.15,54.31
             19.78,53.54 25.84,53.48 27.26,56.29
             29.11,59.94 28.22,66.32 23.94,68.11
             21.92,68.96 19.18,68.97 17.00,69.00
             9.30,69.08 1.02,67.29 0.11,58.00
             -0.91,47.60 6.67,43.12 16.00,43.00
             22.20,42.92 26.42,41.74 27.00,49.09
             22.36,48.79 16.17,47.03 12.02,49.09
             6.52,52.01 4.53,58.28 10.13,62.26
             13.12,64.39 17.48,64.00 21.00,64.00
             21.00,64.00 21.00,59.00 21.00,59.00 Z
           M 30.00,69.00
           C 30.76,61.87 35.39,55.27 38.75,49.00
             40.22,46.25 42.04,42.40 45.91,43.66
             48.61,44.53 50.04,47.67 51.24,50.00
             51.24,50.00 60.00,68.00 60.00,68.00
             53.26,69.86 52.59,67.89 50.00,62.00
             45.48,63.28 43.52,63.28 39.00,62.00
             36.48,67.75 36.36,68.80 30.00,69.00 Z
           M 61.00,43.00
           C 66.56,43.46 66.89,44.52 67.00,50.00
             67.00,50.00 67.00,92.00 67.00,92.00
             67.00,92.00 79.00,92.00 79.00,92.00
             79.00,92.00 79.00,96.00 79.00,96.00
             79.00,96.00 61.00,96.00 61.00,96.00
             61.00,96.00 61.00,43.00 61.00,43.00 Z
           M 73.00,69.00
           C 73.77,61.75 77.92,56.36 81.24,50.00
             82.62,47.37 83.70,44.44 87.09,44.19
             91.14,43.90 92.63,46.92 94.24,50.00
             97.29,55.83 101.31,62.45 102.00,69.00
             95.64,68.80 95.52,67.75 93.00,62.00
             88.48,63.28 86.52,63.28 82.00,62.00
             79.58,67.84 79.49,68.77 73.00,69.00 Z
           M 104.00,44.00
           C 111.11,44.09 112.95,45.27 116.00,52.00
             120.83,46.45 121.35,44.27 129.00,44.00
             129.00,44.00 122.90,55.00 122.90,55.00
             122.90,55.00 130.00,68.00 130.00,68.00
             122.51,70.04 120.30,66.24 117.00,60.00
             111.74,65.72 111.18,68.72 103.00,69.00
             103.00,69.00 110.13,56.00 110.13,56.00
             110.13,56.00 104.00,44.00 104.00,44.00 Z
           M 130.00,44.00
           C 138.67,44.10 138.64,46.75 143.00,54.00
             146.63,46.57 147.58,44.11 156.00,44.00
             156.00,44.00 146.93,59.00 146.93,59.00
             145.60,62.16 146.29,64.88 145.40,66.69
             144.62,68.26 142.97,69.01 141.30,68.34
             138.37,67.18 139.42,63.19 138.49,60.00
             137.03,54.96 132.27,51.13 130.00,44.00 Z
           M 45.00,51.00
           C 45.00,51.00 42.00,57.00 42.00,57.00
             42.00,57.00 47.00,57.00 47.00,57.00
             47.00,57.00 45.00,51.00 45.00,51.00 Z
           M 88.00,51.00
           C 88.00,51.00 85.00,57.00 85.00,57.00
             85.00,57.00 90.00,57.00 90.00,57.00
             90.00,57.00 88.00,51.00 88.00,51.00 Z
           M 181.00,62.00
           C 181.00,62.00 180.00,62.00 180.00,62.00
             180.00,62.00 181.00,63.00 181.00,63.00
             181.00,63.00 181.00,62.00 181.00,62.00 Z
           M 184.00,64.00
           C 184.00,64.00 183.00,64.00 183.00,64.00
             183.00,64.00 184.00,65.00 184.00,65.00
             184.00,65.00 184.00,64.00 184.00,64.00 Z
           M 15.00,91.00
           C 9.65,84.55 4.63,85.90 2.02,81.66
             1.10,80.17 0.88,77.78 1.32,76.10
             3.21,68.76 14.59,70.56 20.00,71.00
             20.00,71.00 20.00,77.00 20.00,77.00
             20.00,77.00 7.00,77.00 7.00,77.00
             7.00,77.00 7.00,79.00 7.00,79.00
             11.74,80.64 23.12,84.08 21.16,90.98
             20.67,92.68 19.42,94.12 17.89,94.98
             15.08,96.56 4.71,96.00 1.00,96.00
             1.00,96.00 1.00,90.00 1.00,90.00
             7.46,91.46 8.20,92.63 15.00,91.00 Z
           M 39.00,70.48
           C 43.77,70.21 48.93,70.99 52.47,74.53
             57.70,79.77 57.31,90.08 50.96,94.26
             47.74,96.39 43.68,96.00 40.00,96.00
             36.53,96.00 33.09,96.27 30.04,94.26
             23.29,89.81 22.57,80.10 28.39,74.56
             31.31,71.78 35.20,71.13 39.00,70.48 Z
           M 82.00,72.00
           C 84.01,71.49 86.38,70.63 87.98,72.60
             90.21,75.37 87.78,85.10 90.02,88.81
             92.44,92.73 97.76,92.38 100.40,88.81
             102.27,86.35 101.99,82.96 102.00,80.00
             102.00,80.00 102.00,71.00 102.00,71.00
             102.00,71.00 108.00,71.00 108.00,71.00
             108.00,75.97 108.76,87.95 106.55,91.89
             103.42,97.46 88.31,97.82 84.60,92.85
             82.53,90.09 82.90,77.02 82.00,72.00 Z
           M 120.00,76.00
           C 118.52,75.99 109.77,76.34 112.17,72.54
             113.29,70.77 117.16,71.01 119.00,71.00
             119.00,71.00 135.00,71.00 135.00,71.00
             135.00,71.00 135.00,76.00 135.00,76.00
             135.00,76.00 127.00,76.00 127.00,76.00
             127.00,94.22 128.50,95.70 120.00,96.00
             120.00,96.00 120.00,76.00 120.00,76.00 Z
           M 136.00,71.00
           C 136.00,71.00 148.00,71.00 148.00,71.00
             148.00,71.00 148.00,76.00 148.00,76.00
             148.00,76.00 145.00,76.00 145.00,76.00
             145.00,76.00 145.00,92.00 145.00,92.00
             145.00,92.00 148.00,92.00 148.00,92.00
             148.00,92.00 148.00,97.00 148.00,97.00
             148.00,97.00 136.00,96.00 136.00,96.00
             136.00,96.00 136.00,92.00 136.00,92.00
             136.00,92.00 139.00,92.00 139.00,92.00
             139.00,92.00 139.00,76.00 139.00,76.00
             139.00,76.00 136.00,76.00 136.00,76.00
             136.00,76.00 136.00,71.00 136.00,71.00 Z
           M 159.00,71.57
           C 164.06,70.65 173.76,70.88 177.78,74.43
             183.63,79.61 182.32,90.07 175.96,94.26
             172.92,96.26 169.47,96.00 166.00,96.00
             161.73,96.01 157.64,96.46 154.11,93.57
             147.54,88.20 148.03,75.88 159.00,71.57 Z
           M 186.00,72.00
           C 186.00,72.00 194.00,71.00 194.00,71.00
             194.00,71.00 207.00,87.00 207.00,87.00
             207.00,87.00 207.00,72.00 207.00,72.00
             207.00,72.00 213.01,72.83 213.01,72.83
             213.01,72.83 214.00,80.00 214.00,80.00
             214.00,80.00 214.00,96.00 214.00,96.00
             214.00,96.00 207.17,95.40 207.17,95.40
             207.17,95.40 193.00,81.00 193.00,81.00
             193.00,94.45 194.02,95.72 186.00,96.00
             186.00,96.00 186.00,72.00 186.00,72.00 Z
           M 37.02,76.43
           C 25.52,81.22 32.26,94.90 43.98,91.43
             50.23,89.58 51.35,82.21 47.57,78.43
             44.73,75.59 40.64,75.89 37.02,76.43 Z
           M 162.02,76.43
           C 150.46,81.24 157.93,94.64 168.98,91.43
             175.81,89.45 176.14,82.00 172.57,78.43
             169.73,75.59 165.64,75.89 162.02,76.43 Z
           M 208.00,87.00
           C 208.00,87.00 207.00,87.00 207.00,87.00
             207.00,87.00 208.00,88.00 208.00,88.00
             208.00,88.00 208.00,87.00 208.00,87.00 Z" />
</svg>
