<?xml version="1.0" encoding="UTF-8" standalone="no"?>
<!DOCTYPE svg PUBLIC "-//W3C//DTD SVG 1.1//EN"
 "http://www.w3.org/Graphics/SVG/1.1/DTD/svg11.dtd">
<!-- Generated by graphviz version 2.47.0 (20210316.0004)
 -->
<!-- Title: dependencies Pages: 1 -->
<svg width="1311pt" height="211pt"
 viewBox="0.00 0.00 1311.00 211.00" xmlns="http://www.w3.org/2000/svg" xmlns:xlink="http://www.w3.org/1999/xlink">
<g id="graph0" class="graph" transform="scale(1 1) rotate(0) translate(4 207)">
<title>dependencies</title>
<polygon fill="white" stroke="transparent" points="-4,4 -4,-207 1307,-207 1307,4 -4,4"/>
<text text-anchor="start" x="630.51" y="-42.4" font-family="Times-12" font-weight="bold" font-size="14.00">Legend</text>
<polygon fill="#ffffb3" stroke="transparent" points="417.5,-10 417.5,-30 437.5,-30 437.5,-10 417.5,-10"/>
<text text-anchor="start" x="441.13" y="-15.4" font-family="Times-12" font-size="14.00"> &#160;Declarations</text>
<polygon fill="#8dd3c7" stroke="transparent" points="530.5,-10 530.5,-30 550.5,-30 550.5,-10 530.5,-10"/>
<text text-anchor="start" x="554.23" y="-15.4" font-family="Times-12" font-size="14.00"> &#160;Module</text>
<polygon fill="#80b1d3" stroke="transparent" points="616.5,-10 616.5,-30 636.5,-30 636.5,-10 616.5,-10"/>
<text text-anchor="start" x="640.28" y="-15.4" font-family="Times-12" font-size="14.00"> &#160;Bootstrap</text>
<polygon fill="#fdb462" stroke="transparent" points="713.5,-10 713.5,-30 733.5,-30 733.5,-10 713.5,-10"/>
<text text-anchor="start" x="737.17" y="-15.4" font-family="Times-12" font-size="14.00"> &#160;Providers</text>
<polygon fill="#fb8072" stroke="transparent" points="809.5,-10 809.5,-30 829.5,-30 829.5,-10 809.5,-10"/>
<text text-anchor="start" x="833.23" y="-15.4" font-family="Times-12" font-size="14.00"> &#160;Exports</text>
<g id="clust1" class="cluster">
<title>cluster_AgendaModule</title>
<polygon fill="none" stroke="black" stroke-dasharray="1,5" points="8,-70 8,-195 1295,-195 1295,-70 8,-70"/>
</g>
<g id="clust5" class="cluster">
<title>cluster_AgendaModule_imports</title>
<polygon fill="none" stroke="black" points="285,-78 285,-130 1287,-130 1287,-78 285,-78"/>
</g>
<g id="clust2" class="cluster">
<title>cluster_AgendaModule_declarations</title>
<polygon fill="none" stroke="black" points="16,-78 16,-130 277,-130 277,-78 16,-78"/>
</g>
<!-- AgendaComponent -->
<g id="node1" class="node">
<title>AgendaComponent</title>
<polygon fill="#ffffb3" stroke="black" points="269.37,-122 144.63,-122 144.63,-86 269.37,-86 269.37,-122"/>
<text text-anchor="middle" x="207" y="-99.8" font-family="Times,serif" font-size="14.00">AgendaComponent</text>
</g>
<!-- AgendaModule -->
<g id="node3" class="node">
<title>AgendaModule</title>
<polygon fill="#8dd3c7" stroke="black" points="696.59,-187 693.59,-191 672.59,-191 669.59,-187 593.41,-187 593.41,-151 696.59,-151 696.59,-187"/>
<text text-anchor="middle" x="645" y="-164.8" font-family="Times,serif" font-size="14.00">AgendaModule</text>
</g>
<!-- AgendaComponent&#45;&gt;AgendaModule -->
<g id="edge1" class="edge">
<title>AgendaComponent&#45;&gt;AgendaModule</title>
<path fill="none" stroke="black" d="M207,-122.28C207,-143.32 207,-175 207,-175 207,-175 583.04,-175 583.04,-175"/>
<polygon fill="black" stroke="black" points="583.04,-178.5 593.04,-175 583.04,-171.5 583.04,-178.5"/>
</g>
<!-- TrainingDialog -->
<g id="node2" class="node">
<title>TrainingDialog</title>
<polygon fill="#ffffb3" stroke="black" points="126.31,-122 23.69,-122 23.69,-86 126.31,-86 126.31,-122"/>
<text text-anchor="middle" x="75" y="-99.8" font-family="Times,serif" font-size="14.00">TrainingDialog</text>
</g>
<!-- TrainingDialog&#45;&gt;AgendaModule -->
<g id="edge2" class="edge">
<title>TrainingDialog&#45;&gt;AgendaModule</title>
<path fill="none" stroke="black" d="M75,-122.09C75,-145.13 75,-182 75,-182 75,-182 583.41,-182 583.41,-182"/>
<polygon fill="black" stroke="black" points="583.41,-185.5 593.41,-182 583.41,-178.5 583.41,-185.5"/>
</g>
<!-- AgendaRoutingModule -->
<g id="node4" class="node">
<title>AgendaRoutingModule</title>
<polygon fill="#8dd3c7" stroke="black" points="1279.2,-122 1276.2,-126 1255.2,-126 1252.2,-122 1130.8,-122 1130.8,-86 1279.2,-86 1279.2,-122"/>
<text text-anchor="middle" x="1205" y="-99.8" font-family="Times,serif" font-size="14.00">AgendaRoutingModule</text>
</g>
<!-- AgendaRoutingModule&#45;&gt;AgendaModule -->
<g id="edge3" class="edge">
<title>AgendaRoutingModule&#45;&gt;AgendaModule</title>
<path fill="none" stroke="black" d="M1205,-122.09C1205,-145.13 1205,-182 1205,-182 1205,-182 706.68,-182 706.68,-182"/>
<polygon fill="black" stroke="black" points="706.68,-178.5 696.68,-182 706.68,-185.5 706.68,-178.5"/>
</g>
<!-- MatButton -->
<g id="node5" class="node">
<title>MatButton</title>
<polygon fill="#8dd3c7" stroke="black" points="1113.17,-122 1110.17,-126 1089.17,-126 1086.17,-122 1036.83,-122 1036.83,-86 1113.17,-86 1113.17,-122"/>
<text text-anchor="middle" x="1075" y="-99.8" font-family="Times,serif" font-size="14.00">MatButton</text>
</g>
<!-- MatButton&#45;&gt;AgendaModule -->
<g id="edge4" class="edge">
<title>MatButton&#45;&gt;AgendaModule</title>
<path fill="none" stroke="black" d="M1075,-122.28C1075,-143.32 1075,-175 1075,-175 1075,-175 706.87,-175 706.87,-175"/>
<polygon fill="black" stroke="black" points="706.87,-171.5 696.87,-175 706.87,-178.5 706.87,-171.5"/>
</g>
<!-- MatCard -->
<g id="node6" class="node">
<title>MatCard</title>
<polygon fill="#8dd3c7" stroke="black" points="1018.76,-122 1015.76,-126 994.76,-126 991.76,-122 953.24,-122 953.24,-86 1018.76,-86 1018.76,-122"/>
<text text-anchor="middle" x="986" y="-99.8" font-family="Times,serif" font-size="14.00">MatCard</text>
</g>
<!-- MatCard&#45;&gt;AgendaModule -->
<g id="edge5" class="edge">
<title>MatCard&#45;&gt;AgendaModule</title>
<path fill="none" stroke="black" d="M986,-122.11C986,-141.34 986,-169 986,-169 986,-169 706.79,-169 706.79,-169"/>
<polygon fill="black" stroke="black" points="706.79,-165.5 696.79,-169 706.79,-172.5 706.79,-165.5"/>
</g>
<!-- MatCardContent -->
<g id="node7" class="node">
<title>MatCardContent</title>
<polygon fill="#8dd3c7" stroke="black" points="935.09,-122 932.09,-126 911.09,-126 908.09,-122 824.91,-122 824.91,-86 935.09,-86 935.09,-122"/>
<text text-anchor="middle" x="880" y="-99.8" font-family="Times,serif" font-size="14.00">MatCardContent</text>
</g>
<!-- MatCardContent&#45;&gt;AgendaModule -->
<g id="edge6" class="edge">
<title>MatCardContent&#45;&gt;AgendaModule</title>
<path fill="none" stroke="black" d="M880,-122.02C880,-139.37 880,-163 880,-163 880,-163 706.57,-163 706.57,-163"/>
<polygon fill="black" stroke="black" points="706.57,-159.5 696.57,-163 706.57,-166.5 706.57,-159.5"/>
</g>
<!-- MatCardTitle -->
<g id="node8" class="node">
<title>MatCardTitle</title>
<polygon fill="#8dd3c7" stroke="black" points="807.2,-122 804.2,-126 783.2,-126 780.2,-122 714.8,-122 714.8,-86 807.2,-86 807.2,-122"/>
<text text-anchor="middle" x="761" y="-99.8" font-family="Times,serif" font-size="14.00">MatCardTitle</text>
</g>
<!-- MatCardTitle&#45;&gt;AgendaModule -->
<g id="edge7" class="edge">
<title>MatCardTitle&#45;&gt;AgendaModule</title>
<path fill="none" stroke="black" d="M761,-122.24C761,-137.57 761,-157 761,-157 761,-157 706.55,-157 706.55,-157"/>
<polygon fill="black" stroke="black" points="706.55,-153.5 696.55,-157 706.55,-160.5 706.55,-153.5"/>
</g>
<!-- MatDialogTitle -->
<g id="node9" class="node">
<title>MatDialogTitle</title>
<polygon fill="#8dd3c7" stroke="black" points="696.59,-122 693.59,-126 672.59,-126 669.59,-122 593.41,-122 593.41,-86 696.59,-86 696.59,-122"/>
<text text-anchor="middle" x="645" y="-99.8" font-family="Times,serif" font-size="14.00">MatDialogTitle</text>
</g>
<!-- MatDialogTitle&#45;&gt;AgendaModule -->
<g id="edge8" class="edge">
<title>MatDialogTitle&#45;&gt;AgendaModule</title>
<path fill="none" stroke="black" d="M645,-122.11C645,-122.11 645,-140.99 645,-140.99"/>
<polygon fill="black" stroke="black" points="641.5,-140.99 645,-150.99 648.5,-140.99 641.5,-140.99"/>
</g>
<!-- MatIcon -->
<g id="node10" class="node">
<title>MatIcon</title>
<polygon fill="#8dd3c7" stroke="black" points="575.93,-122 572.93,-126 551.93,-126 548.93,-122 512.07,-122 512.07,-86 575.93,-86 575.93,-122"/>
<text text-anchor="middle" x="544" y="-99.8" font-family="Times,serif" font-size="14.00">MatIcon</text>
</g>
<!-- MatIcon&#45;&gt;AgendaModule -->
<g id="edge9" class="edge">
<title>MatIcon&#45;&gt;AgendaModule</title>
<path fill="none" stroke="black" d="M544,-122.24C544,-137.57 544,-157 544,-157 544,-157 583.32,-157 583.32,-157"/>
<polygon fill="black" stroke="black" points="583.32,-160.5 593.32,-157 583.32,-153.5 583.32,-160.5"/>
</g>
<!-- MatIconButton -->
<g id="node11" class="node">
<title>MatIconButton</title>
<polygon fill="#8dd3c7" stroke="black" points="494.54,-122 491.54,-126 470.54,-126 467.54,-122 393.46,-122 393.46,-86 494.54,-86 494.54,-122"/>
<text text-anchor="middle" x="444" y="-99.8" font-family="Times,serif" font-size="14.00">MatIconButton</text>
</g>
<!-- MatIconButton&#45;&gt;AgendaModule -->
<g id="edge10" class="edge">
<title>MatIconButton&#45;&gt;AgendaModule</title>
<path fill="none" stroke="black" d="M444,-122.02C444,-139.37 444,-163 444,-163 444,-163 583.24,-163 583.24,-163"/>
<polygon fill="black" stroke="black" points="583.24,-166.5 593.24,-163 583.24,-159.5 583.24,-166.5"/>
</g>
<!-- MatToolbar -->
<g id="node12" class="node">
<title>MatToolbar</title>
<polygon fill="#8dd3c7" stroke="black" points="375.37,-122 372.37,-126 351.37,-126 348.37,-122 292.63,-122 292.63,-86 375.37,-86 375.37,-122"/>
<text text-anchor="middle" x="334" y="-99.8" font-family="Times,serif" font-size="14.00">MatToolbar</text>
</g>
<!-- MatToolbar&#45;&gt;AgendaModule -->
<g id="edge11" class="edge">
<title>MatToolbar&#45;&gt;AgendaModule</title>
<path fill="none" stroke="black" d="M334,-122.11C334,-141.34 334,-169 334,-169 334,-169 583.3,-169 583.3,-169"/>
<polygon fill="black" stroke="black" points="583.3,-172.5 593.3,-169 583.3,-165.5 583.3,-172.5"/>
</g>
</g>
</svg>
