<?xml version="1.0" encoding="UTF-8" standalone="no"?>
<!DOCTYPE svg PUBLIC "-//W3C//DTD SVG 1.1//EN"
 "http://www.w3.org/Graphics/SVG/1.1/DTD/svg11.dtd">
<!-- Generated by graphviz version 2.47.0 (20210316.0004)
 -->
<!-- Title: dependencies Pages: 1 -->
<svg width="684pt" height="284pt"
 viewBox="0.00 0.00 684.00 284.00" xmlns="http://www.w3.org/2000/svg" xmlns:xlink="http://www.w3.org/1999/xlink">
<g id="graph0" class="graph" transform="scale(1 1) rotate(0) translate(4 280)">
<title>dependencies</title>
<polygon fill="white" stroke="transparent" points="-4,4 -4,-280 680,-280 680,4 -4,4"/>
<text text-anchor="start" x="317.01" y="-42.4" font-family="Times-12" font-weight="bold" font-size="14.00">Legend</text>
<polygon fill="#ffffb3" stroke="transparent" points="104,-10 104,-30 124,-30 124,-10 104,-10"/>
<text text-anchor="start" x="127.63" y="-15.4" font-family="Times-12" font-size="14.00"> &#160;Declarations</text>
<polygon fill="#8dd3c7" stroke="transparent" points="217,-10 217,-30 237,-30 237,-10 217,-10"/>
<text text-anchor="start" x="240.73" y="-15.4" font-family="Times-12" font-size="14.00"> &#160;Module</text>
<polygon fill="#80b1d3" stroke="transparent" points="303,-10 303,-30 323,-30 323,-10 303,-10"/>
<text text-anchor="start" x="326.78" y="-15.4" font-family="Times-12" font-size="14.00"> &#160;Bootstrap</text>
<polygon fill="#fdb462" stroke="transparent" points="400,-10 400,-30 420,-30 420,-10 400,-10"/>
<text text-anchor="start" x="423.67" y="-15.4" font-family="Times-12" font-size="14.00"> &#160;Providers</text>
<polygon fill="#fb8072" stroke="transparent" points="496,-10 496,-30 516,-30 516,-10 496,-10"/>
<text text-anchor="start" x="519.73" y="-15.4" font-family="Times-12" font-size="14.00"> &#160;Exports</text>
<g id="clust1" class="cluster">
<title>cluster_AppModule</title>
<polygon fill="none" stroke="black" stroke-dasharray="1,5" points="8,-70 8,-268 668,-268 668,-70 8,-70"/>
</g>
<g id="clust5" class="cluster">
<title>cluster_AppModule_imports</title>
<polygon fill="none" stroke="black" points="274,-78 274,-130 660,-130 660,-78 274,-78"/>
</g>
<g id="clust2" class="cluster">
<title>cluster_AppModule_declarations</title>
<polygon fill="none" stroke="black" points="16,-78 16,-130 266,-130 266,-78 16,-78"/>
</g>
<g id="clust7" class="cluster">
<title>cluster_AppModule_bootstrap</title>
<polygon fill="none" stroke="black" points="273,-208 273,-260 397,-260 397,-208 273,-208"/>
</g>
<!-- AppComponent -->
<g id="node1" class="node">
<title>AppComponent</title>
<polygon fill="#ffffb3" stroke="black" points="257.94,-122 152.06,-122 152.06,-86 257.94,-86 257.94,-122"/>
<text text-anchor="middle" x="205" y="-99.8" font-family="Times,serif" font-size="14.00">AppComponent</text>
</g>
<!-- AppModule -->
<g id="node3" class="node">
<title>AppModule</title>
<polygon fill="#8dd3c7" stroke="black" points="376.66,-187 373.66,-191 352.66,-191 349.66,-187 293.34,-187 293.34,-151 376.66,-151 376.66,-187"/>
<text text-anchor="middle" x="335" y="-164.8" font-family="Times,serif" font-size="14.00">AppModule</text>
</g>
<!-- AppComponent&#45;&gt;AppModule -->
<g id="edge1" class="edge">
<title>AppComponent&#45;&gt;AppModule</title>
<path fill="none" stroke="black" d="M205,-122.02C205,-139.37 205,-163 205,-163 205,-163 283.15,-163 283.15,-163"/>
<polygon fill="black" stroke="black" points="283.15,-166.5 293.15,-163 283.15,-159.5 283.15,-166.5"/>
</g>
<!-- ErrorComponent -->
<g id="node2" class="node">
<title>ErrorComponent</title>
<polygon fill="#ffffb3" stroke="black" points="134.37,-122 23.63,-122 23.63,-86 134.37,-86 134.37,-122"/>
<text text-anchor="middle" x="79" y="-99.8" font-family="Times,serif" font-size="14.00">ErrorComponent</text>
</g>
<!-- ErrorComponent&#45;&gt;AppModule -->
<g id="edge2" class="edge">
<title>ErrorComponent&#45;&gt;AppModule</title>
<path fill="none" stroke="black" d="M79,-122.28C79,-143.32 79,-175 79,-175 79,-175 283.3,-175 283.3,-175"/>
<polygon fill="black" stroke="black" points="283.3,-178.5 293.3,-175 283.3,-171.5 283.3,-178.5"/>
</g>
<!-- AppComponent  -->
<g id="node7" class="node">
<title>AppComponent </title>
<polygon fill="#80b1d3" stroke="black" points="389.44,-252 280.56,-252 280.56,-216 389.44,-216 389.44,-252"/>
<text text-anchor="middle" x="335" y="-229.8" font-family="Times,serif" font-size="14.00">AppComponent </text>
</g>
<!-- AppModule&#45;&gt;AppComponent  -->
<g id="edge6" class="edge">
<title>AppModule&#45;&gt;AppComponent </title>
<path fill="none" stroke="black" stroke-dasharray="1,5" d="M335,-187.11C335,-187.11 335,-205.99 335,-205.99"/>
<polygon fill="black" stroke="black" points="331.5,-205.99 335,-215.99 338.5,-205.99 331.5,-205.99"/>
</g>
<!-- AppRoutingModule -->
<g id="node4" class="node">
<title>AppRoutingModule</title>
<polygon fill="#8dd3c7" stroke="black" points="652.27,-122 649.27,-126 628.27,-126 625.27,-122 523.73,-122 523.73,-86 652.27,-86 652.27,-122"/>
<text text-anchor="middle" x="588" y="-99.8" font-family="Times,serif" font-size="14.00">AppRoutingModule</text>
</g>
<!-- AppRoutingModule&#45;&gt;AppModule -->
<g id="edge3" class="edge">
<title>AppRoutingModule&#45;&gt;AppModule</title>
<path fill="none" stroke="black" d="M588,-122.28C588,-143.32 588,-175 588,-175 588,-175 386.78,-175 386.78,-175"/>
<polygon fill="black" stroke="black" points="386.78,-171.5 376.78,-175 386.78,-178.5 386.78,-171.5"/>
</g>
<!-- MatDatepicker -->
<g id="node5" class="node">
<title>MatDatepicker</title>
<polygon fill="#8dd3c7" stroke="black" points="505.96,-122 502.96,-126 481.96,-126 478.96,-122 406.04,-122 406.04,-86 505.96,-86 505.96,-122"/>
<text text-anchor="middle" x="456" y="-99.8" font-family="Times,serif" font-size="14.00">MatDatepicker</text>
</g>
<!-- MatDatepicker&#45;&gt;AppModule -->
<g id="edge4" class="edge">
<title>MatDatepicker&#45;&gt;AppModule</title>
<path fill="none" stroke="black" d="M456,-122.02C456,-139.37 456,-163 456,-163 456,-163 386.98,-163 386.98,-163"/>
<polygon fill="black" stroke="black" points="386.98,-159.5 376.98,-163 386.98,-166.5 386.98,-159.5"/>
</g>
<!-- MaterialModule -->
<g id="node6" class="node">
<title>MaterialModule</title>
<polygon fill="#8dd3c7" stroke="black" points="388.47,-122 385.47,-126 364.47,-126 361.47,-122 281.53,-122 281.53,-86 388.47,-86 388.47,-122"/>
<text text-anchor="middle" x="335" y="-99.8" font-family="Times,serif" font-size="14.00">MaterialModule</text>
</g>
<!-- MaterialModule&#45;&gt;AppModule -->
<g id="edge5" class="edge">
<title>MaterialModule&#45;&gt;AppModule</title>
<path fill="none" stroke="black" d="M335,-122.11C335,-122.11 335,-140.99 335,-140.99"/>
<polygon fill="black" stroke="black" points="331.5,-140.99 335,-150.99 338.5,-140.99 331.5,-140.99"/>
</g>
</g>
</svg>
